<?xml version="1.0" encoding="utf-8"?>
<!-- Generator: Adobe Illustrator 19.0.0, SVG Export Plug-In . SVG Version: 6.00 Build 0)  -->
<svg version="1.1" baseProfile="tiny" id="Layer_1" xmlns="http://www.w3.org/2000/svg" xmlns:xlink="http://www.w3.org/1999/xlink"
	 x="0px" y="0px" width="500px" height="500px" viewBox="-47 170.9 500 500" xml:space="preserve">
<path d="M97.6,358.3h17.1v126H97.6V358.3z M127.6,358.3h17.1v126h-17.1V358.3z M151.2,358.3h17.1v126h-17.1V358.3z M181.2,358.3h8.6
	v126h-8.6V358.3z M202.6,358.3h8.6v126h-8.6V358.3z M224.1,358.3h23.6v126h-23.6V358.3z M266.9,358.3h21.4v126h-21.4V358.3z
	 M299.1,358.3h8.6v126h-8.6V358.3z M353,312.9h-55.1v5.3h49.9V368h5.3V312.9z M108.1,523.6H58.2v-49.9H53v55.1h55.1V523.6z"/>
</svg>
