<?xml version="1.0" encoding="utf-8"?>
<svg version="1.1" id="Layer_1" xmlns="http://www.w3.org/2000/svg" xmlns:xlink="http://www.w3.org/1999/xlink" x="0px" y="0px"
	 viewBox="-47 170.9 500 500" style="enable-background:new -47 170.9 500 500;" xml:space="preserve">
<path d="M290.5,438.4v11.7c0,3.2-2.6,5.8-5.8,5.8s-5.8-2.6-5.8-5.8v-5.8h-23.3v23.3h29.2c3.2,0,5.8,2.6,5.8,5.8l0,35
	c0,3.2-2.6,5.8-5.8,5.8H273v5.8c0,3.2-2.6,5.8-5.8,5.8s-5.8-2.6-5.8-5.8v-5.8h-11.7c-3.3,0-5.8-2.6-5.8-5.8v-11.7
	c0-3.2,2.6-5.8,5.8-5.8s5.8,2.6,5.8,5.8v5.8h23.3v-23.3h-29.2c-3.2,0-5.8-2.6-5.8-5.8v-35c0-3.2,2.6-5.8,5.8-5.8h11.7v-5.8
	c0-3.2,2.6-5.8,5.8-5.8s5.8,2.6,5.8,5.8v5.8h11.7C287.9,432.6,290.5,435.1,290.5,438.4z M226.3,339.2h-105c-3.2,0-5.8,2.6-5.8,5.8
	s2.6,5.8,5.8,5.8h105c3.2,0,5.8-2.6,5.8-5.8S229.6,339.2,226.3,339.2z M191.3,385.9h-70c-3.2,0-5.8,2.6-5.8,5.8s2.6,5.8,5.8,5.8h70
	c3.2,0,5.8-2.6,5.8-5.8S194.6,385.9,191.3,385.9z M191.3,479.2h-70c-3.2,0-5.8,2.6-5.8,5.8s2.6,5.8,5.8,5.8h70
	c3.2,0,5.8-2.6,5.8-5.8S194.6,479.2,191.3,479.2z M191.3,432.6h-70c-3.2,0-5.8,2.6-5.8,5.8s2.6,5.8,5.8,5.8h70
	c3.2,0,5.8-2.6,5.8-5.8S194.6,432.6,191.3,432.6z M284.7,339.2H273c-3.2,0-5.8,2.6-5.8,5.8s2.6,5.8,5.8,5.8h11.7
	c3.2,0,5.8-2.6,5.8-5.8S287.9,339.2,284.7,339.2z M284.7,385.9H273c-3.2,0-5.8,2.6-5.8,5.8s2.6,5.8,5.8,5.8h11.7
	c3.2,0,5.8-2.6,5.8-5.8S287.9,385.9,284.7,385.9z M325.5,251.7v338.3c0,1.5-0.6,3-1.7,4.1c-2.3,2.3-6,2.3-8.2,0L296.3,575
	l-19.2,19.2c-2.3,2.3-6,2.3-8.2,0L249.7,575l-19.2,19.2c-2.3,2.3-6,2.3-8.2,0L203,575l-19.2,19.2c-2.3,2.3-6,2.3-8.2,0L156.3,575
	l-19.2,19.2c-2.3,2.3-6,2.3-8.2,0L109.7,575l-19.2,19.2c-2.3,2.3-6,2.3-8.2,0c-1.1-1.1-1.7-2.6-1.7-4.1V251.7c0-1.5,0.6-3,1.7-4.1
	c2.3-2.3,6-2.3,8.2,0l19.2,19.2l19.2-19.2c2.3-2.3,6-2.3,8.2,0l19.2,19.2l19.2-19.2c2.3-2.3,6-2.3,8.2,0l19.2,19.2l19.2-19.2
	c2.3-2.3,6-2.3,8.2,0l19.2,19.2l19.2-19.2c2.3-2.3,6-2.3,8.2,0l19.2,19.2l19.2-19.2c2.3-2.3,6-2.3,8.2,0
	C324.9,248.7,325.5,250.2,325.5,251.7z M300.5,562.6l13.4,13.4V265.8l-13.4,13.4c-2.3,2.3-6,2.3-8.2,0L273,260l-19.2,19.2
	c-2.3,2.3-6,2.3-8.2,0L226.3,260l-19.2,19.2c-2.3,2.3-6,2.3-8.2,0L179.7,260l-19.2,19.2c-2.3,2.3-6,2.3-8.2,0L133,260l-19.2,19.2
	c-2.3,2.3-6,2.3-8.2,0l-13.4-13.4V576l13.4-13.4c2.3-2.3,6-2.3,8.2,0l19.2,19.2l19.2-19.2c2.3-2.3,6-2.3,8.2,0l19.2,19.2l19.2-19.2
	c2.3-2.3,6-2.3,8.2,0l19.2,19.2l19.2-19.2c2.3-2.3,6-2.3,8.2,0l19.2,19.2l19.2-19.2C294.5,560.3,298.2,560.3,300.5,562.6z"/>
</svg>
