<?xml version="1.0" encoding="utf-8"?>
<svg version="1.1" id="Layer_1" xmlns="http://www.w3.org/2000/svg" xmlns:xlink="http://www.w3.org/1999/xlink" x="0px" y="0px"
	 viewBox="-47 170.9 500 500" style="enable-background:new -47 170.9 500 500;" xml:space="preserve">
<path id="XMLID_215_" d="M297.1,545.9c-2.3,0-5.9-0.7-9.9-3.8l-83.5-66.7l-83.5,66.8c-4.2,3.3-8.2,3.8-10.2,3.8
	c-6.3,0-13-5.1-13-14.6V313c0-11.8,10.5-17.1,20.2-17.1h173c11.3,0,18.7,6.7,18.7,17.1v218.3c0,4.1-0.7,7.1-2.2,9.3
	C304.3,544.1,301.1,545.9,297.1,545.9z M203.8,459.6c5,0,9.6,1.6,13.5,4.7l74.5,59.9V313.1H114.3v211l75.2-59.8
	C193.2,461.4,198.5,459.6,203.8,459.6z"/>
</svg>
