<?xml version="1.0" encoding="utf-8"?>
<!-- Generator: Adobe Illustrator 19.0.0, SVG Export Plug-In . SVG Version: 6.00 Build 0)  -->
<svg version="1.1" id="Layer_1" xmlns="http://www.w3.org/2000/svg" xmlns:xlink="http://www.w3.org/1999/xlink" x="0px" y="0px"
	 viewBox="-55 147 500 500" style="enable-background:new -55 147 500 500;" xml:space="preserve">
<path d="M157.5,372h-25v25h25V372z M207.5,372h-25v25h25V372z M257.5,372h-25v25h25V372z M282.5,284.5H270v-25h-25v25H145v-25h-25
	v25h-12.5c-13.9,0-24.9,11.2-24.9,25l-0.1,175c0,13.8,11.1,25,25,25h175c13.8,0,25-11.2,25-25v-175
	C307.5,295.7,296.2,284.5,282.5,284.5z M282.5,484.5h-175V347h175V484.5z"/>
</svg>
