<?xml version="1.0" encoding="utf-8"?>
<!-- Generator: Adobe Illustrator 16.0.0, SVG Export Plug-In . SVG Version: 6.00 Build 0)  -->
<!DOCTYPE svg PUBLIC "-//W3C//DTD SVG 1.1//EN" "http://www.w3.org/Graphics/SVG/1.1/DTD/svg11.dtd">
<svg version="1.1" id="Layer_1" xmlns="http://www.w3.org/2000/svg" xmlns:xlink="http://www.w3.org/1999/xlink" x="0px" y="0px"
	 width="16px" height="16px" viewBox="0 0 16 16" enable-background="new 0 0 16 16" xml:space="preserve">
<path d="M9,8c0,0.552-0.448,1-1,1C7.448,9,7,8.552,7,8s0.448-1,1-1C8.552,7,9,7.448,9,8z M8,11c-0.552,0-1,0.448-1,1s0.448,1,1,1
	c0.552,0,1-0.448,1-1S8.552,11,8,11z M8,3C7.448,3,7,3.448,7,4s0.448,1,1,1c0.552,0,1-0.448,1-1S8.552,3,8,3z"/>
</svg>
