<?xml version="1.0" encoding="utf-8"?>
<!-- Generator: Adobe Illustrator 16.0.0, SVG Export Plug-In . SVG Version: 6.00 Build 0)  -->
<!DOCTYPE svg PUBLIC "-//W3C//DTD SVG 1.1//EN" "http://www.w3.org/Graphics/SVG/1.1/DTD/svg11.dtd">
<svg version="1.1" id="Layer_1" xmlns="http://www.w3.org/2000/svg" xmlns:xlink="http://www.w3.org/1999/xlink" x="0px" y="0px"
	 width="16px" height="16px" viewBox="0 0 16 16" enable-background="new 0 0 16 16" xml:space="preserve">
<path d="M8,15.012c-0.729,0-1.454-0.115-2.154-0.342C2.948,13.734,1,11.059,1,8.012C1,5.778,2.082,3.66,3.893,2.346
	C4.341,2.022,4.965,2.122,5.29,2.568c0.324,0.447,0.225,1.073-0.222,1.397C3.773,4.904,3,6.417,3,8.012
	c0,2.175,1.391,4.086,3.461,4.755c1.003,0.324,2.074,0.324,3.078,0C11.608,12.099,13,10.188,13,8.012
	c0-1.601-0.777-3.117-2.079-4.056c-0.448-0.323-0.549-0.948-0.227-1.396c0.322-0.449,0.948-0.551,1.396-0.227
	C13.912,3.647,15,5.77,15,8.012c0,3.045-1.947,5.722-4.847,6.659C9.453,14.897,8.729,15.012,8,15.012z M9,6V1c0-0.552-0.448-1-1-1
	S7,0.448,7,1v5c0,0.552,0.448,1,1,1S9,6.552,9,6z"/>
</svg>
