<svg enable-background="new 0 0 500 500" viewBox="0 0 500 500" xmlns="http://www.w3.org/2000/svg"><path d="m230.9 202.7c-4.7 4.7-12.4 4.7-17.1 0l-22.1-22.1v115.7c0 6.7-5.4 12.1-12.1 12.1s-12.1-5.4-12.1-12.1v-115.7l-22.1 22.1c-4.7 4.7-12.4 4.7-17.1 0s-4.7-12.4 0-17.1l42.7-42.7h.1c1.1-1.1 2.4-2 3.8-2.5 2.9-1.2 6.3-1.2 9.2 0 1.5.6 2.8 1.5 4 2.6l42.6 42.7c4.9 4.7 4.9 12.3.2 17z"/><path d="m367 310.5-42.7 42.7s-.1 0-.1.1c-1.1 1.1-2.4 1.9-3.8 2.5-2.9 1.2-6.3 1.2-9.2 0-1.4-.6-2.6-1.4-3.7-2.5-.1 0-.2-.1-.2-.1l-42.7-42.7c-4.7-4.7-4.7-12.4 0-17.1s12.4-4.7 17.1 0l22.1 22.1v-115.7c0-6.7 5.4-12.1 12.1-12.1s12.1 5.4 12.1 12.1v115.7l22.1-22.1c4.7-4.7 12.4-4.7 17.1 0 4.5 4.7 4.5 12.4-.2 17.1z"/></svg>