<?xml version="1.0" encoding="utf-8"?>
<!-- Generator: Adobe Illustrator 19.2.0, SVG Export Plug-In . SVG Version: 6.00 Build 0)  -->
<svg version="1.1" id="Layer_1" xmlns="http://www.w3.org/2000/svg" xmlns:xlink="http://www.w3.org/1999/xlink" x="0px" y="0px"
	 viewBox="0 0 16 16" style="enable-background:new 0 0 16 16;" xml:space="preserve">
<path d="M14,5c0,0,0-0.1,0-0.1c0,0,0,0,0,0c0,0,0,0,0,0c0-0.1-0.1-0.2-0.2-0.2c0,0,0,0,0,0c-0.1-0.1-0.2-0.1-0.3-0.1h-11
	c-0.1,0-0.2,0-0.3,0.1c0,0,0,0,0,0C2.1,4.7,2.1,4.8,2,4.8c0,0,0,0,0,0c0,0,0,0,0,0C2,4.9,2,5,2,5v6c0,0.1,0,0.1,0,0.2c0,0,0,0,0,0
	c0,0,0,0,0,0c0,0.1,0.1,0.1,0.2,0.2c0,0,0,0,0.1,0c0.1,0,0.2,0.1,0.2,0.1h11c0.1,0,0.2,0,0.2-0.1c0,0,0,0,0.1,0
	c0.1,0,0.1-0.1,0.2-0.2c0,0,0,0,0,0c0,0,0,0,0,0c0-0.1,0-0.1,0-0.2V5z M13,9.7l-2.2-2.4L13,5.9V9.7z M11.8,5.5L8,7.9L4.2,5.5H11.8z
	 M5.2,7.3L3,9.7V5.9L5.2,7.3z M3.6,10.5l2.4-2.6l1.7,1.1C7.8,9,7.9,9,8,9s0.2,0,0.3-0.1l1.7-1.1l2.4,2.6H3.6z"/>
</svg>
