<?xml version="1.0" encoding="utf-8"?>
<!-- Generator: Adobe Illustrator 19.2.0, SVG Export Plug-In . SVG Version: 6.00 Build 0)  -->
<svg version="1.1" id="Layer_1" xmlns="http://www.w3.org/2000/svg" xmlns:xlink="http://www.w3.org/1999/xlink" x="0px" y="0px"
	 viewBox="0 0 16 16" style="enable-background:new 0 0 16 16;" xml:space="preserve">
<path d="M3.5,8.5C3.2,8.5,3,8.3,3,8V5c0-0.3,0.2-0.5,0.5-0.5h3C6.8,4.5,7,4.7,7,5S6.8,5.5,6.5,5.5H4V8C4,8.3,3.8,8.5,3.5,8.5z
	 M13,11V8c0-0.3-0.2-0.5-0.5-0.5S12,7.7,12,8v2.5H9.5C9.2,10.5,9,10.7,9,11s0.2,0.5,0.5,0.5h3C12.8,11.5,13,11.3,13,11z M14.5,13.5
	h-13C1.2,13.5,1,13.3,1,13V3c0-0.3,0.2-0.5,0.5-0.5h13C14.8,2.5,15,2.7,15,3v10C15,13.3,14.8,13.5,14.5,13.5z M2,12.5h12v-9H2V12.5z
	"/>
</svg>
