<?xml version="1.0" encoding="utf-8"?>
<!-- Generator: Adobe Illustrator 19.0.0, SVG Export Plug-In . SVG Version: 6.00 Build 0)  -->
<svg version="1.1" baseProfile="tiny" id="Layer_1" xmlns="http://www.w3.org/2000/svg" xmlns:xlink="http://www.w3.org/1999/xlink"
	 x="0px" y="0px" width="500px" height="500px" viewBox="-47 170.9 500 500" xml:space="preserve">
<path d="M165.5,408.4h-25v25h25V408.4z M215.5,408.4h-25v25h25V408.4z M265.5,408.4h-25v25h25V408.4z M290.5,320.9H278v-25h-25v25
	H153v-25h-25v25h-12.5c-13.9,0-24.9,11.2-24.9,25l-0.1,175c0,13.8,11.1,25,25,25h175c13.8,0,25-11.2,25-25v-175
	C315.5,332.1,304.2,320.9,290.5,320.9z M290.5,520.9h-175V383.4h175V520.9z"/>
</svg>
