<?xml version="1.0" encoding="utf-8"?>
<!-- Generator: Adobe Illustrator 19.2.0, SVG Export Plug-In . SVG Version: 6.00 Build 0)  -->
<svg version="1.1" id="Layer_1" xmlns="http://www.w3.org/2000/svg" xmlns:xlink="http://www.w3.org/1999/xlink" x="0px" y="0px"
	 viewBox="0 0 16 16" style="enable-background:new 0 0 16 16;" xml:space="preserve">
<path d="M13.7,7.6l-11-5.5C2.5,2,2.3,2,2.1,2.2C2,2.3,2,2.6,2.1,2.7L4.9,8l-2.9,5.3C2,13.5,2,13.7,2.1,13.9C2.2,14,2.4,14,2.5,14
	c0.1,0,0.2,0,0.2-0.1l11-5.5C13.9,8.4,14,8.2,14,8C14,7.8,13.9,7.6,13.7,7.6z M3.7,12.4l2.1-3.9h2.6c0.3,0,0.5-0.2,0.5-0.5
	S8.7,7.5,8.4,7.5H5.8L3.7,3.7L12.4,8L3.7,12.4z"/>
</svg>
