<?xml version="1.0" encoding="utf-8"?>
<svg version="1.1" id="Layer_1" xmlns="http://www.w3.org/2000/svg" xmlns:xlink="http://www.w3.org/1999/xlink" x="0px" y="0px"
	 viewBox="-47 170.9 500 500" style="enable-background:new -47 170.9 500 500;" xml:space="preserve">
<path d="M350.2,317.8C350.2,317.8,350.2,317.8,350.2,317.8c-0.2-0.1-0.3-0.2-0.5-0.3c-0.4-0.2-0.7-0.3-1.1-0.4l-143.9-45.8
	c-0.5-0.2-1-0.3-1.7-0.3c-0.5,0-1.2,0.2-1.7,0.3l-144.1,46c-0.5,0.2-0.9,0.4-1.3,0.7c0,0,0,0,0,0c-0.2,0.1-0.3,0.2-0.5,0.3
	c-0.7,0.5-1.3,1.2-1.7,2c-0.6,1.3-0.8,2.7-0.4,4.1l12.2,170.8c0.2,2,1.3,3.7,3,4.7L200,570.1c0.2,0.2,0.5,0.3,0.8,0.4
	c0.7,0.3,1.4,0.4,2.2,0.4c0.8,0,1.8-0.2,2.9-0.7l131.9-70.5c1.7-1,2.9-2.7,3-4.7l12.2-172C353.1,320.8,352,318.9,350.2,317.8z
	 M203,386.8l-50.2-24.6l124.1-55.9l54.8,17.5L203,386.8z M202.8,282.8l47.9,15.2l-127.2,49.9l-49.4-24.2L202.8,282.8z M65.1,332.3
	l49.4,24.1l3.2,53.9l28.5,15.4l-0.6-54.1l51.6,25.2v158.8L76.4,491L65.1,332.3z M329.2,491l-120.5,64.5V396.8l131.8-64.5L329.2,491z
	"/>
</svg>
