<?xml version="1.0" encoding="utf-8"?>
<!-- Generator: Adobe Illustrator 19.2.0, SVG Export Plug-In . SVG Version: 6.00 Build 0)  -->
<svg version="1.1" id="Layer_1" xmlns="http://www.w3.org/2000/svg" xmlns:xlink="http://www.w3.org/1999/xlink" x="0px" y="0px"
	 viewBox="0 0 16 16" style="enable-background:new 0 0 16 16;" xml:space="preserve">
<path d="M2.4,12.7c-0.2,0-0.3-0.1-0.3-0.2l0,0l0-0.1C2,12.2,2.1,12,2.3,12c0.2-0.1,0.5-0.1,1-0.1c0.2,0,0.4,0,0.6,0
	c0.3,0,0.6,0,0.9,0c0.8,0,2.1,0,3.3-0.4l0.7-0.2l4.2-1c0,0,0.1,0,0.1-0.1C13.1,10,12.7,10,12.5,10c-0.1,0-2.3,0.4-2.3,0.4
	c-0.1,0.2-0.4,0.3-0.7,0.3l-2,0.4c-0.2,0-0.6,0.1-1,0.1c-0.7,0-1.2-0.1-1.5-0.3c-0.2-0.1-0.2-0.3-0.1-0.5c0.1-0.1,0.2-0.2,0.3-0.2
	c0.1,0,0.1,0,0.2,0.1c0.1,0.1,0.4,0.2,1.1,0.2c0.4,0,0.7,0,0.9-0.1c0,0,1.9-0.4,1.9-0.4c0.1,0,0.1,0,0.2-0.1c0.1-0.2,0-0.3-0.2-0.3
	C9.1,9.5,9,9.4,8.8,9.5c-0.1,0-0.3,0.1-0.4,0.1c-0.3,0.1-0.7,0.2-1,0.2c0,0-0.1,0-0.1,0c-0.3-0.1-0.9-0.3-2-0.3
	c-1.1,0-2,0.3-2.7,0.8c-0.1,0.1-0.2,0.1-0.2,0.1c-0.1,0-0.2-0.1-0.3-0.2C2,10.1,2,10,2,10c0-0.1,0.1-0.2,0.2-0.3
	C3,9,4.1,8.7,5.3,8.7c0.1,0,0.2,0,0.3,0c1,0,1.8,0.3,1.8,0.3c0,0,1.4-0.3,1.5-0.3c0.8,0,1.3,0.4,1.4,0.9c0,0,2.1-0.3,2.2-0.3
	c0.3,0,0.7,0.1,0.9,0.3c0.4,0.3,0.7,0.9,0.4,1.3c-0.1,0.2-0.3,0.2-0.6,0.3l-4.2,1l-0.7,0.2c-1.3,0.4-2.7,0.4-3.5,0.4
	c-0.3,0-0.6,0-0.9,0c-0.2,0-0.4,0-0.6,0C2.9,12.7,2.7,12.7,2.4,12.7L2.4,12.7z M12.2,7.6L12,5.5l0,0l-0.2-2.2L3.8,4l0.4,4.4L10,7.9
	l0,0L12.2,7.6L12.2,7.6z M11.5,6.3l0.1,0.8l-0.8,0.1c0-0.2,0.2-0.3,0.3-0.5C11.1,6.5,11.3,6.4,11.5,6.3z M11.2,3.9l0.1,0.8
	c-0.2,0-0.3-0.2-0.5-0.3c-0.1-0.1-0.2-0.3-0.4-0.4L11.2,3.9z M5.1,5.1C4.9,5.3,4.8,5.4,4.6,5.5l-0.2-1l1-0.1
	C5.4,4.7,5.3,4.9,5.1,5.1z M4.7,7.7L4.7,6.9c0.2,0,0.3,0.2,0.6,0.3c0.1,0.1,0.2,0.2,0.4,0.4L4.7,7.7z M6.3,7.6C6.1,7.2,6,7,5.7,6.7
	C5.4,6.5,5,6.3,4.6,6.3l0-0.1c0.4-0.2,0.7-0.4,1-0.7C5.9,5.2,6,4.8,6.1,4.4L9.9,4c0.1,0.3,0.3,0.6,0.5,0.9c0.3,0.2,0.6,0.3,0.9,0.5
	l0,0.3C11,5.7,10.7,6,10.5,6.3C10.2,6.6,10.1,7,10,7.2L6.3,7.6z M8.8,4.9C8.3,4.4,7.5,4.5,7,5S6.6,6.3,7.1,6.8
	c0.5,0.4,1.3,0.4,1.8-0.2C9.4,6.1,9.4,5.3,8.8,4.9z M7.6,6.3C7.3,6.1,7.3,5.7,7.5,5.4c0.2-0.3,0.6-0.3,0.9-0.1
	c0.3,0.2,0.3,0.6,0.1,0.9C8.3,6.5,7.9,6.5,7.6,6.3z"/>
</svg>
