<?xml version="1.0" encoding="utf-8"?>
<svg version="1.1" id="Layer_1" xmlns="http://www.w3.org/2000/svg" xmlns:xlink="http://www.w3.org/1999/xlink" x="0px" y="0px"
	 viewBox="-47 170.9 500 500" style="enable-background:new -47 170.9 500 500;" xml:space="preserve">
<path id="XMLID_241_" d="M140.4,353l-22.8-13.6l3.9-6.5l15.8,9.4l17.5-34.3l6.8,3.5L140.4,353z M172.3,333.8H288v-6.6H172.3V333.8z
	 M172.3,347.8H288v-6.6H172.3V347.8z M172.3,319.7H288v-6.6H172.3V319.7z M161.7,375l-6.8-3.5l-17.5,34.3l-15.8-9.4l-3.9,6.5
	l22.8,13.6L161.7,375z M172.3,397.3h112.4v-6.6H172.3V397.3z M172.3,411.4h112.4v-6.6H172.3V411.4z M172.3,383.3h112.4v-6.6H172.3
	V383.3z M161.7,438.5l-6.8-3.5l-17.5,34.3l-15.8-9.4l-3.9,6.5l22.8,13.6L161.7,438.5z M172.3,460.8h112.4v-6.6H172.3V460.8z
	 M172.3,474.9h112.4v-6.6H172.3V474.9z M172.3,446.8h112.4v-6.6H172.3V446.8z M315.5,270.9v252.3l-47.7,47.7H90.5v-300H315.5z
	 M302.6,522.8h-32.9v32.9L302.6,522.8z M306.1,280.3H99.9v281.2h160.5v-48.1h45.8V280.3z"/>
</svg>
