<?xml version="1.0" encoding="utf-8"?>
<svg version="1.1" id="Layer_1" xmlns="http://www.w3.org/2000/svg" xmlns:xlink="http://www.w3.org/1999/xlink" x="0px" y="0px"
	 viewBox="-47 170.9 500 500" style="enable-background:new -47 170.9 500 500;" xml:space="preserve">
<path d="M352.1,349.9c1-1.8,1.2-3.9,0.5-6.1c-0.2-1.7-0.7-3.3-1.9-4.3c-1.9-1.7-4.7-3.4-7.2-3.4H90.7c-4.2,0-7.3,2.5-7.7,5.9
	L53.5,493.8c0,0.1,0,0.1,0,0.2c-0.7,1.8-0.8,3.9,0,5.8c2.2,3.4,5,5.9,9.3,5.9h252.8c3.4,0,6.4-2.5,6.9-5.1c0-0.1,0-0.1,0-0.2
	c0.2-0.5,0.5-1,0.6-1.5L352.1,349.9z M96.6,360.9l65.7,63.9l-88.2,54.7L96.6,360.9z M197.7,437l-86.6-84h205.9L197.7,437z
	 M330.7,365.7l-22.2,117.2l-66.8-54.8L330.7,365.7z M92.7,488.8l81.6-52.3l18.1,17.6c1.9,1.7,3.7,2.5,6.3,2.5c0.6,0,1.3-0.2,1.9-0.4
	c1.1-0.2,2.1-0.6,3-1.3l25.6-17.8l63,51.7H92.7z"/>
</svg>
