<?xml version="1.0" encoding="utf-8"?>
<svg version="1.1" id="Layer_1" xmlns="http://www.w3.org/2000/svg" xmlns:xlink="http://www.w3.org/1999/xlink" x="0px" y="0px"
	 viewBox="-47 170.9 500 500" style="enable-background:new -47 170.9 500 500;" xml:space="preserve">
<path id="XMLID_276_" d="M198.8,391.2h-50.7V384h50.7V391.2z M198.8,407.6h-50.7v7.2h50.7V407.6z M198.8,430.3h-50.7v7.2h50.7V430.3
	z M198.8,452.2h-50.7v7.2h50.7V452.2z M198.8,475h-50.7v7.2h50.7V475z M148.2,369.4h155.5v-8H148.2V369.4z M297.8,390h-73.1v69.1
	h73.1V390 M303.7,384v81h-84.9v-81H303.7L303.7,384z M322.5,536.4c15.7,0,30.5-15.8,30.5-32.5V305.4H95.3v39.1H53v144.2
	c0,33,12.5,47.7,40.5,47.7H322.5z M110.9,321h226.5v182.9c0,6.9-5.8,16.9-14.9,16.9H103.1l2.1-4.3c3.8-7.6,5.7-16.7,5.7-27.8V321z
	 M68.6,360.1h26.7v128.6c0,20-4.6,30.1-13.7,30.1c-3.9,0-12.9-2.9-12.9-30.1V360.1z"/>
</svg>
