<?xml version="1.0" encoding="utf-8"?>
<svg version="1.1" id="Layer_1" xmlns="http://www.w3.org/2000/svg" xmlns:xlink="http://www.w3.org/1999/xlink" x="0px" y="0px"
	 viewBox="-47 170.9 500 500" style="enable-background:new -47 170.9 500 500;" xml:space="preserve">
<path d="M203,320.9c7.9,0,14.3,6.4,14.3,14.3c0,7.9-6.4,14.3-14.3,14.3s-14.3-6.4-14.3-14.3C188.7,327.3,195.1,320.9,203,320.9
	 M203,306.6c-15.8,0-28.6,12.8-28.6,28.6c0,15.8,12.8,28.6,28.6,28.6s28.6-12.8,28.6-28.6C231.6,319.4,218.8,306.6,203,306.6
	L203,306.6z M217.3,392.3v114.3h-28.6V392.3H217.3 M217.3,378h-28.6c-7.9,0-14.3,5.3-14.3,11.9v119c0,6.6,6.4,11.9,14.3,11.9h28.6
	c7.9,0,14.3-5.3,14.3-11.9v-119C231.6,383.4,225.2,378,217.3,378L217.3,378z M203,235.2c102.4,0,185.7,83.3,185.7,185.7
	S305.4,606.6,203,606.6S17.3,523.3,17.3,420.9S100.6,235.2,203,235.2 M203,220.9c-110.5,0-200,89.5-200,200s89.5,200,200,200
	s200-89.5,200-200S313.5,220.9,203,220.9L203,220.9z"/>
</svg>
