<?xml version="1.0" encoding="utf-8"?>
<svg version="1.1" id="Layer_1" xmlns="http://www.w3.org/2000/svg" xmlns:xlink="http://www.w3.org/1999/xlink" x="0px" y="0px"
	 viewBox="-47 170.9 500 500" style="enable-background:new -47 170.9 500 500;" xml:space="preserve">
<path d="M328.8,342.2h-48.7L251,312.8c0,0-0.1-0.1-0.2-0.1l-0.1-0.1l0,0c-4.3-4.3-10.2-7.1-16.8-7.1h-60.6c-7.1,0-13.3,3-17.7,7.9
	v0.1L127,342.2H77.2c-13.4,0-24.2,10.5-24.2,23.9v145.8c0,13.4,10.8,24.3,24.2,24.3h251.5c13.3,0,24.2-10.9,24.2-24.3V366.1
	C353,352.7,342.1,342.2,328.8,342.2z M203,499.8c-36.7,0-66.6-30-66.6-66.8c0-36.9,29.9-66.8,66.6-66.8c36.8,0,66.6,29.9,66.6,66.8
	C269.6,469.8,239.8,499.8,203,499.8z M324.2,380.8c-5.6,0-10.1-4.5-10.1-10.2s4.5-10.2,10.1-10.2s10.1,4.5,10.1,10.2
	S329.8,380.8,324.2,380.8z M203,382.5c-27.8,0-50.3,22.6-50.3,50.5c0,27.8,22.5,50.5,50.3,50.5s50.3-22.6,50.3-50.5
	S230.8,382.5,203,382.5z"/>
</svg>
