<?xml version="1.0" encoding="utf-8"?>
<!-- Generator: Adobe Illustrator 19.2.0, SVG Export Plug-In . SVG Version: 6.00 Build 0)  -->
<svg version="1.1" id="Layer_1" xmlns="http://www.w3.org/2000/svg" xmlns:xlink="http://www.w3.org/1999/xlink" x="0px" y="0px"
	 viewBox="0 0 16 16" style="enable-background:new 0 0 16 16;" xml:space="preserve">
<style type="text/css">
	.st0{fill:#010101;}
</style>
<path class="st0" d="M8.5,4.1c1.7,0.2,1.9,1.1,2.3,3.5c0.2,1.1,0.3,2.2,0.8,3.3H4.4c0.5-1.1,0.7-2.2,0.8-3.3
	c0.3-2.4,0.6-3.3,2.2-3.4L8,4 M8,1.5c-0.4,0-0.7,0.3-0.7,0.7v0.4C4.3,2.9,4,5.2,3.7,7.3c-0.2,1.4-0.4,2.9-1.3,3.8
	c-0.2,0.2-0.2,0.5-0.1,0.7c0.1,0.3,0.4,0.4,0.6,0.4h2.9c0,1.2,1,2.2,2.2,2.2s2.2-1,2.2-2.2h2.9c0.3,0,0.5-0.2,0.6-0.4
	c0.1-0.2,0-0.5-0.1-0.7c-0.9-1-1.2-2.4-1.4-3.8C12,5.2,11.6,2.9,8.7,2.6V2.2C8.7,1.8,8.4,1.5,8,1.5L8,1.5z M8,13.1
	c-0.5,0-0.8-0.4-0.9-0.8H8h0.9C8.8,12.8,8.4,13.1,8,13.1L8,13.1z"/>
</svg>
