<?xml version="1.0" encoding="utf-8"?>
<!-- Generator: Adobe Illustrator 19.2.0, SVG Export Plug-In . SVG Version: 6.00 Build 0)  -->
<svg version="1.1" id="Layer_1" xmlns="http://www.w3.org/2000/svg" xmlns:xlink="http://www.w3.org/1999/xlink" x="0px" y="0px"
	 viewBox="0 0 16 16" style="enable-background:new 0 0 16 16;" xml:space="preserve">
<path d="M8,15c-2.8,0-5.1-2.3-5.1-5.1c0-1.9,1-3.6,2.7-4.5L4.8,2.6c0-0.2,0-0.3,0.1-0.4S5.1,2,5.2,2h5.5c0.2,0,0.3,0.1,0.4,0.2
	c0.1,0.1,0.1,0.3,0.1,0.4l-0.9,2.7c1.7,0.9,2.7,2.6,2.7,4.5C13.1,12.7,10.8,15,8,15z M5.9,3l0.7,2.5c0.1,0.2,0,0.5-0.3,0.6
	C4.9,6.8,3.9,8.2,3.9,9.9C3.9,12.2,5.7,14,8,14c2.3,0,4.1-1.8,4.1-4.1c0-1.7-1-3.2-2.5-3.8C9.4,6,9.2,5.7,9.3,5.5L10.1,3H5.9z
	 M6.9,10.4c0.1,0.1,0.3,0.3,0.5,0.4c0.2,0.1,0.5,0.2,0.7,0.2c0.1,0,0.2,0,0.2,0c0.1,0,0.1,0,0.2-0.1c0.1,0,0.1-0.1,0.2-0.1
	c0-0.1,0.1-0.1,0.1-0.2c0-0.1-0.1-0.3-0.2-0.4C8.4,10,8.2,10,7.9,9.9L7.7,9.8C7.3,9.7,7,9.5,6.8,9.3C6.5,9.1,6.4,8.8,6.4,8.5
	c0-0.4,0.1-0.7,0.4-0.9c0.2-0.2,0.6-0.4,1-0.4V6.5h0.7v0.6c0.3,0,0.6,0.1,0.8,0.2c0.2,0.1,0.3,0.2,0.5,0.3L9,8.4
	c0,0-0.1-0.1-0.2-0.1c-0.1,0-0.1-0.1-0.2-0.1C8.6,8.1,8.5,8.1,8.4,8C8.3,8,8.2,8,8.1,8C8,8,8,8,7.9,8c-0.1,0-0.2,0-0.2,0.1
	c-0.1,0-0.1,0.1-0.2,0.1c0,0.1-0.1,0.1-0.1,0.2c0,0.2,0.1,0.3,0.2,0.3C7.8,8.9,8,8.9,8.3,9c0.2,0,0.4,0.1,0.5,0.2
	C9,9.3,9.2,9.4,9.3,9.5c0.1,0.1,0.3,0.2,0.3,0.4c0.1,0.2,0.1,0.4,0.1,0.6c0,0.2,0,0.4-0.1,0.5c-0.1,0.2-0.2,0.3-0.3,0.4
	c-0.1,0.1-0.3,0.2-0.4,0.3c-0.2,0.1-0.3,0.1-0.5,0.2v0.7H7.8v-0.7c-0.3,0-0.6-0.1-0.9-0.3c-0.3-0.1-0.5-0.3-0.6-0.5L6.9,10.4z"/>
</svg>
