<?xml version="1.0" encoding="utf-8"?>
<!-- Generator: Adobe Illustrator 19.2.0, SVG Export Plug-In . SVG Version: 6.00 Build 0)  -->
<svg version="1.1" id="Layer_1" xmlns="http://www.w3.org/2000/svg" xmlns:xlink="http://www.w3.org/1999/xlink" x="0px" y="0px"
	 viewBox="0 0 16 16" style="enable-background:new 0 0 16 16;" xml:space="preserve">
<path d="M8,15c-0.2,0-0.3-0.1-0.4-0.2C7.1,14.2,3,8.6,3,6c0-2.8,2.2-5,5-5s5,2.2,5,5c0,2.6-4.1,8.2-4.6,8.8C8.3,14.9,8.2,15,8,15z
	 M8,2C5.8,2,4,3.8,4,6c0,1.7,2.6,5.7,4,7.7c1.4-2,4-5.9,4-7.7C12,3.8,10.2,2,8,2z M8,8C6.9,8,6,7.1,6,6s0.9-2,2-2c1.1,0,2,0.9,2,2
	S9.1,8,8,8z M8,5C7.4,5,7,5.4,7,6s0.4,1,1,1c0.6,0,1-0.4,1-1S8.6,5,8,5z"/>
</svg>
