<?xml version="1.0" encoding="utf-8"?>
<!-- Generator: Adobe Illustrator 19.0.0, SVG Export Plug-In . SVG Version: 6.00 Build 0)  -->
<svg version="1.1" id="Layer_1" xmlns="http://www.w3.org/2000/svg" xmlns:xlink="http://www.w3.org/1999/xlink" x="0px" y="0px"
	 viewBox="0 0 500 500" style="enable-background:new 0 0 500 500;" xml:space="preserve">
<path d="M414.5,431.9h-330l41.2-288.8h60.9c-3.6,13-6.2,27.2-7.7,42.4c-6.8,3.2-11.6,10.1-11.6,18.1c0,11.1,9,20.1,20.1,20.1
	s20.1-9,20.1-20.1c0-6.5-3.2-12.3-8-16c1.7-15.7,4.9-30.9,9.1-44.5h81.8c4.2,13.6,7.4,28.9,9.1,44.5c-4.9,3.7-8,9.4-8,16
	c0,11.1,9,20.1,20.1,20.1c11.1,0,20.1-9,20.1-20.1c0-8-4.7-14.9-11.6-18.1c-1.5-15.2-4.1-29.4-7.7-42.4h60.9L414.5,431.9z M249.5,69
	c-22.1,0-41.5,19.3-54.6,50.2h23.2c8.8-17.6,19.7-28.9,31.4-28.9c11.7,0,22.7,11.3,31.4,28.9h23.2C291.1,88.2,271.7,69,249.5,69z"/>
</svg>
