<?xml version="1.0" encoding="utf-8"?>
<!-- Generator: Adobe Illustrator 19.2.0, SVG Export Plug-In . SVG Version: 6.00 Build 0)  -->
<svg version="1.1" id="Layer_1" xmlns="http://www.w3.org/2000/svg" xmlns:xlink="http://www.w3.org/1999/xlink" x="0px" y="0px"
	 viewBox="0 0 16 16" style="enable-background:new 0 0 16 16;" xml:space="preserve">
<style type="text/css">
	.st0{fill:#231F20;}
</style>
<path class="st0" d="M7.3,8L3.6,4.4c-0.2-0.2-0.2-0.5,0-0.7s0.5-0.2,0.7,0L8,7.3l3.6-3.6c0.2-0.2,0.5-0.2,0.7,0s0.2,0.5,0,0.7L8.7,8
	l3.7,3.6c0.2,0.2,0.2,0.5,0,0.7s-0.5,0.2-0.7,0L8,8.7l-3.6,3.6c-0.2,0.2-0.5,0.2-0.7,0c-0.2-0.2-0.2-0.5,0-0.7L7.3,8z"/>
</svg>
