<?xml version="1.0" encoding="utf-8"?>
<!-- Generator: Adobe Illustrator 19.2.0, SVG Export Plug-In . SVG Version: 6.00 Build 0)  -->
<svg version="1.1" id="Layer_1" xmlns="http://www.w3.org/2000/svg" xmlns:xlink="http://www.w3.org/1999/xlink" x="0px" y="0px"
	 viewBox="0 0 16 16" style="enable-background:new 0 0 16 16;" xml:space="preserve">
<style type="text/css">
	.st0{display:none;}
</style>
<path class="st0" d="M10.1,1L1,10.1L5.9,15L15,5.9L10.1,1z M1.8,10.1L10,1.9L14.1,6l-8.2,8.2L1.8,10.1z M12.3,5.3l0.2-0.2l-1.6-1.6
	l-0.2,0.2C10.3,4,9.8,4,9.4,3.7L9.2,3.5L3.5,9.2l0.2,0.2c0.3,0.3,0.3,0.9,0,1.2l-0.2,0.2l1.6,1.6l0.2-0.2c0.3-0.3,0.9-0.3,1.2,0
	l0.2,0.2l5.8-5.8l-0.2-0.2C12,6.2,12,5.7,12.3,5.3z M8.8,7.2c0.7,0.7,0.9,1.6,0.4,2.1s-1.4,0.2-2-0.5c-0.7-0.6-0.9-1.6-0.4-2l0,0
	C7.2,6.3,8.2,6.5,8.8,7.2z M6.7,11.7c-0.5-0.3-1.1-0.3-1.6,0l-0.9-0.9c0.3-0.5,0.3-1.1,0-1.6L6,7.6c0,0.6,0.3,1.2,0.8,1.7
	s1.1,0.8,1.7,0.8L6.7,11.7z M11.7,6.7L10,8.4c0-0.6-0.3-1.2-0.8-1.7C8.7,6.3,8.1,6,7.6,5.9l1.7-1.7c0.5,0.3,1.1,0.3,1.6,0l0.9,0.9
	C11.4,5.6,11.4,6.3,11.7,6.7z"/>
<path d="M14,11.3V8l0,0V4.7H2v6.7h8.7l0,0H14z M13.1,9.2v1.2h-1.2c0.1-0.3,0.3-0.5,0.5-0.7S12.8,9.3,13.1,9.2z M13.1,5.6v1.2
	c-0.3-0.1-0.5-0.3-0.7-0.5c-0.2-0.2-0.3-0.5-0.5-0.7L13.1,5.6z M3.8,6.6C3.5,6.9,3.3,7,3,7.1L2.9,5.6h1.5C4.3,6,4.1,6.3,3.8,6.6z
	 M2.9,10.4l0-1.2c0.3,0.1,0.5,0.3,0.8,0.5c0.2,0.2,0.3,0.3,0.5,0.6L2.9,10.4z M5.2,10.4C5,9.9,4.8,9.5,4.5,9.1
	C4,8.7,3.5,8.4,2.9,8.3l0-0.1C3.5,8,4,7.7,4.5,7.3c0.5-0.5,0.7-1,0.9-1.7h5.6c0.1,0.5,0.3,1,0.7,1.4c0.4,0.4,0.9,0.6,1.3,0.8v0.4
	c-0.5,0.1-1,0.5-1.4,0.9c-0.4,0.4-0.6,0.9-0.8,1.3L5.2,10.4z M9.3,6.7c-0.7-0.7-1.9-0.7-2.7,0s-0.7,1.9,0,2.7c0.7,0.7,1.9,0.7,2.7,0
	C10.1,8.6,10.1,7.4,9.3,6.7z M7.3,8.7c-0.4-0.4-0.4-0.9,0-1.3c0.4-0.4,0.9-0.4,1.3,0c0.4,0.4,0.4,0.9,0,1.3C8.3,9.1,7.7,9.1,7.3,8.7
	z"/>
</svg>
