<?xml version="1.0" encoding="utf-8"?>
<svg version="1.1" id="Layer_1" xmlns="http://www.w3.org/2000/svg" xmlns:xlink="http://www.w3.org/1999/xlink" x="0px" y="0px"
	 viewBox="0 0 500 500" style="enable-background:new 0 0 500 500;" xml:space="preserve">
<path id="XMLID_431_" d="M249.9,144.3c6.7-10.7,14.1-19.4,22.6-25.9c12.7-9.6,27.7-14.5,47.6-14.5 c21.9,0,41.8,8.5,56.3,22.4c14.5,13.9,23.5,33.1,23.5,54.3c0,36-18.3,71.3-45.8,106.6c-26.8,34.2-62.1,68-97.5,101.7l-6.7,6.3 l-6.7-6.3c-35.3-33.8-70.6-67.5-97.5-101.7c-27.5-35.1-45.8-70.6-45.8-106.6c0-21.2,8.9-40.5,23.5-54.3s34.4-22.4,56.3-22.4 C213.7,103.9,232.9,117.3,249.9,144.3z"/>
</svg>
