<?xml version="1.0" encoding="utf-8"?>
<svg version="1.1" id="Layer_1" xmlns="http://www.w3.org/2000/svg" xmlns:xlink="http://www.w3.org/1999/xlink" x="0px" y="0px"
	 viewBox="-47 170.9 500 500" style="enable-background:new -47 170.9 500 500;" xml:space="preserve">
<path d="M332.6,493.3c-21.8-22.7-26.6-56.2-31.2-88.7c-6.8-48.1-14.5-102.1-83.1-109.2v-8.7c0-8.7-7.1-15.8-15.8-15.8
	c-8.7,0-15.8,7.1-15.8,15.8v8.7c-68,7.1-75.6,61.2-82.4,109.2c-4.6,32.5-9.3,66-30.9,88.7c-4.4,4.6-5.6,11.3-3.1,17.1
	c2.5,5.8,8.2,9.6,14.6,9.6h66.3c0.4,28.1,23.3,50.8,51.4,50.8s51-22.7,51.4-50.8h67.3c6.3,0,12.1-3.8,14.6-9.6
	C338.2,504.7,337,497.9,332.6,493.3z M202.5,539.2c-10.7,0-19.4-8.5-19.7-19.1h19.7h19.7C221.9,530.7,213.2,539.2,202.5,539.2z"/>
</svg>
