<?xml version="1.0" encoding="utf-8"?>
<!-- Generator: Adobe Illustrator 19.0.0, SVG Export Plug-In . SVG Version: 6.00 Build 0)  -->
<svg version="1.1" id="Layer_1" xmlns="http://www.w3.org/2000/svg" xmlns:xlink="http://www.w3.org/1999/xlink" x="0px" y="0px"
	 viewBox="-47 170.9 500 500" style="enable-background:new -47 170.9 500 500;" xml:space="preserve">
<path d="M323.2,462.1h-1.4c-7.5,0-14.9,3.3-20.5,8.9c-5.1,6.1-7.9,13.1-7.9,21.4c0,15.9,13.1,28.4,28.9,28.4h1.4
	c7.5,0,14.9-3.3,20.5-8.9c5.1-6.1,7.9-13.1,7.9-21.4C352.1,474.7,339.1,462.1,323.2,462.1z M321.4,508.3c-7.9,0-15.4-7-15.9-15.9
	c0-4.2,1.9-8.9,4.7-11.7c3.7-3.3,7.9-5.1,11.7-5.1c9.3,0,16.3,6.5,16.3,15.9S330.7,507.8,321.4,508.3z M130.2,462.1h-1.4
	c-7.5,0-14.9,3.3-20.5,8.9c-5.1,6.1-7.9,13.1-7.9,21.4c0,15.9,13.1,28.4,28.9,28.4h1.4c7.5,0,14.9-3.3,20.5-8.9
	c5.1-6.1,7.9-13.1,7.9-21.4C159.1,474.7,146.1,462.1,130.2,462.1z M128.8,508.3c-7.9,0-15.4-7-15.9-15.9c0-4.2,1.9-8.9,4.7-11.7
	c3.7-3.3,7.9-5.1,11.7-5.1c8.9,0,15.9,6.5,16.3,15.9C145.6,500.8,138.1,507.8,128.8,508.3z M288.3,387.5c-0.5-1.4-1.9-1.9-3.3-1.9
	h-32.2c-2.3,0-4.7,1.9-4.7,4.7v25.2c0,2.3,1.9,4.7,4.7,4.7h49.4c2.3,0,4.7-1.9,4.7-4.7v-3.7c0-1.9-0.5-3.3-1.9-4.7L288.3,387.5z
	 M374.9,477.2l-2.3-16.9c-0.1-1.8-0.7-3.2-1.2-4.3c-0.1-0.3-0.3-0.7-0.4-1l-0.2-0.7l-1.6-2.1c-0.9-1.8-0.9-2.5-0.9-2.5l0.6-13.7
	v-1.9l-2.9-20.9c-1.3-7.3-6.8-12.5-13.9-13.1l-30.5-3.2c-2.1-0.3-3.2-0.9-4.3-2.2l-16.9-18.8c-3.3-3.3-7.4-5.1-11.7-5.1h-39.6
	c-2.5,0-4.9,0.7-7.1,1.8c-0.1-2.2-0.6-4.3-1.7-6h41.4c5.8,0,10.7-4.9,10.7-10.7v-23.5c0.3-2.9-0.6-5.7-2.5-7.9c-2-2.3-5-3.6-8.2-3.6
	H41.6c-5.8,0-10.7,4.9-10.7,10.7v92.8c0,3.1,1.4,5.9,3.6,7.9c-2.2,2.7-3.6,6.1-3.6,9.8v33.6c0,8.6,7.3,15.8,15.9,15.8h42.4
	c4.6,0,8.3-3,9.2-7.3c1.3-5.6,3.8-10.3,7.6-14.1c6.4-6.4,14.2-9.8,22.3-9.8h1.9c14.6,0,27.6,10.3,30.9,24.2c0.9,4.5,4.6,7.5,9.2,7.5
	h111.4c4.6,0,8.3-3,9.2-7.3c1.3-5.6,3.8-10.3,7.6-14.1c6.4-6.4,14.2-9.8,22.3-9.8h1.9c15.7,0,29.7,11.9,31.7,27.2l0.5,4h8.7
	c3.3,0,5.6-1.5,7.3-2.6l2.6-2.5l0.3-1.4c0.1-0.5,0.3-1.1,0.4-1.6C374.8,482.1,375.4,479.9,374.9,477.2z M340.9,424.3
	c0,0-0.5,0-0.5-0.5v-7.9c0,0,0-0.5,0.5-0.5h3.7v8.9H340.9z M349.3,415.5h7.6l1.2,8.9h-8.8L349.3,415.5L349.3,415.5z M40.2,331.6
	c0-0.7,0.7-1.4,1.4-1.4h240.1c0.5,0,1,0.2,1.2,0.4c0.1,0.1,0.3,0.3,0.2,0.9v24.4c0,0.7-0.7,1.4-1.4,1.4h-51.4L226,366l5.8,4.8
	c0.6,0.4,0.9,1.3,0.9,2.3V422c-0.7,1.7-2.1,3.1-3.8,3.8H41.6c-0.7,0-1.4-0.7-1.4-1.4C40.2,424.4,40.2,331.6,40.2,331.6z
	 M365.3,481.4c-0.1,0.2-0.1,0.4-0.2,0.6c-0.6,0.4-1.1,0.6-1.4,0.6h-0.8c-4.4-18.1-21-31.2-40.2-31.2h-1.9
	c-10.7,0-20.7,4.3-28.9,12.6c-5,5-8.4,11.3-10.2,18.7l-111.5-0.1c-4.3-18.3-21.1-31.6-40-31.6h-1.9c-10.7,0-20.7,4.3-28.9,12.6
	c-5,5-8.4,11.3-10.2,18.7H46.8c-3.5,0-6.5-3.1-6.5-6.5v-33.6c0-3.5,3.1-6.5,6.5-6.5h180c1.2,0,2.4-0.2,3.6-0.5h1.1
	c5.8,0,10.7-4.9,10.7-10.7v-1.1c0.3-1.2,0.5-2.3,0.5-3.6v-33.1c0-3.5,3.1-6.5,6.5-6.5h39.6c1.8,0,3.5,0.8,4.9,2.2l16.6,18.4
	c3.1,3.9,7.1,5,10.1,5.5l30.8,3.3c1.6,0.1,2.9,0.8,3.9,1.9h-14.2c-2.8,0-5.1,2.3-5.1,5.1v7.9c0,2.8,2.3,5.1,5.1,5.1h17.2
	c0.2,0,0.4-0.1,0.7-0.1l0.7,5.1v1.4l-0.5,12.2c-0.6,3.3,0.8,6.5,1.9,8.7l1.4,2c0.1,0.3,0.3,0.7,0.4,1c0.2,0.4,0.4,0.9,0.4,0.9
	l2.4,17.9l0.1,0.3C365.9,479.4,365.7,480.1,365.3,481.4z"/>
</svg>
