<?xml version="1.0" encoding="utf-8"?>
<svg version="1.1" id="Layer_1" xmlns="http://www.w3.org/2000/svg" xmlns:xlink="http://www.w3.org/1999/xlink" x="0px" y="0px"
	 viewBox="-47 170.9 500 500" style="enable-background:new -47 170.9 500 500;" xml:space="preserve">
<path d="M145.5,411l-39.8,47.4c-2,2.4-4.9,3.7-8,3.7c0,0-0.5,0-0.5,0c-3.3-0.2-6.3-1.9-8.1-4.6L54.8,406c-1.5-2.3-2.1-5.1-1.6-7.8
	c0.5-2.7,2.1-5.1,4.4-6.6c1.7-1.1,3.7-1.8,5.8-1.8c3.5,0,6.7,1.7,8.6,4.6l12.5,18.7c1.6-17,7-33.6,16.1-48.9
	c16.9-28.2,44.6-48.6,76-55.9c8.7-2,17.6-3.1,26.5-3.1c33.1,0,64.7,14.3,86.6,39.2c1.8,2.1,2.8,4.8,2.6,7.5
	c-0.2,2.8-1.4,5.3-3.5,7.1c-1.9,1.7-4.3,2.6-6.9,2.6c-3,0-5.8-1.3-7.8-3.5c-18-20.4-43.9-32.1-71.1-32.1c-7.3,0-14.6,0.8-21.7,2.5
	c-26,6.1-48.9,23-62.9,46.4c-9.7,16.1-14.2,34.1-13.7,52.2l24.8-29.6c2-2.4,4.9-3.7,8-3.7c2.4,0,4.8,0.9,6.7,2.4
	C148.6,400,149.2,406.6,145.5,411z M351.2,448.3l-33.8-50.6c-0.1-0.1-0.2-0.3-0.3-0.4l-0.3-0.4c-0.1-0.1-0.3-0.2-0.4-0.3
	c-0.7-0.9-1.5-1.7-2.5-2.3c-0.5-0.3-0.9-0.6-1.4-0.8c-0.7-0.3-1.5-0.5-2.4-0.6c-0.7-0.1-1.2-0.5-1.9-0.5c-3.1,0-6,1.3-8,3.7
	l-39.8,47.4c-3.7,4.4-3.1,11,1.3,14.6c1.9,1.6,4.2,2.4,6.7,2.4c3.1,0,6-1.4,7.9-3.7l22.6-27c-4.3,38.7-34.2,74-74.4,83.5
	c-7.2,1.7-14.5,2.5-21.8,2.5c-25,0-48.6-9.8-66.6-27.5c-2-1.9-4.6-3-7.3-3c-2.8,0-5.4,1.1-7.4,3.1c-2,2-3,4.6-3,7.3
	c0,2.8,1.1,5.4,3.1,7.3c21.9,21.6,50.7,33.5,81.1,33.5c8.9,0,17.8-1,26.6-3.1c46.8-11,82.1-51.2,89.5-96.2l15.1,22.6
	c1.9,2.9,5.2,4.6,8.6,4.6c2.1,0,4-0.6,5.8-1.7c2.3-1.5,3.9-3.9,4.4-6.6C353.3,453.3,352.8,450.6,351.2,448.3z"/>
</svg>
