<?xml version="1.0" encoding="utf-8"?>
<!-- Generator: Adobe Illustrator 19.2.0, SVG Export Plug-In . SVG Version: 6.00 Build 0)  -->
<svg version="1.1" id="Layer_1" xmlns="http://www.w3.org/2000/svg" xmlns:xlink="http://www.w3.org/1999/xlink" x="0px" y="0px"
	 viewBox="0 0 16 16" style="enable-background:new 0 0 16 16;" xml:space="preserve">
<path d="M11.9,5.9l0.5-0.5c0.2-0.2,0.2-0.5,0-0.7s-0.5-0.2-0.7,0l-0.5,0.5c-0.7-0.6-1.6-1-2.7-1.1l0,0V3h1C9.8,3,10,2.8,10,2.5
	S9.8,2,9.5,2h-3C6.2,2,6,2.2,6,2.5S6.2,3,6.5,3h1v1l0,0C5,4.3,3,6.4,3,9c0,2.7,2.2,5,5,5s5-2.3,5-5C13,7.8,12.6,6.7,11.9,5.9z M8,13
	c-2.2,0-4-1.8-4-4s1.8-4,4-4s4,1.8,4,4S10.2,13,8,13z M8.5,7v2c0,0.3-0.2,0.5-0.5,0.5S7.5,9.3,7.5,9V7c0-0.3,0.2-0.5,0.5-0.5
	S8.5,6.7,8.5,7z"/>
</svg>
