<?xml version="1.0" encoding="utf-8"?>
<svg version="1.1" id="Layer_1" xmlns="http://www.w3.org/2000/svg" xmlns:xlink="http://www.w3.org/1999/xlink" x="0px" y="0px"
	 viewBox="-47 170.9 500 500" style="enable-background:new -47 170.9 500 500;" xml:space="preserve">
<path d="M293.2,350.9c-0.7-4.7-4.7-8.3-9.5-8.3h-27.1c-3.7-26.4-26.2-46.8-53.6-46.8c-27.4,0-49.8,20.4-53.6,46.8h-27.1
	c-4.8,0-8.8,3.5-9.5,8.3L87.3,535c-0.4,2.7,0.4,5.5,2.3,7.6c1.8,2.1,4.5,3.3,7.2,3.3h212.5c2.8,0,5.4-1.2,7.2-3.3
	c1.8-2.1,2.6-4.9,2.3-7.6L293.2,350.9z M203,315.1c16.8,0,30.8,11.8,34.3,27.6h-68.6C172.2,326.9,186.2,315.1,203,315.1z
	 M107.8,526.7l22.9-164.9h144.7l22.9,164.9H107.8z"/>
</svg>
