<?xml version="1.0" encoding="utf-8"?>
<!-- Generator: Adobe Illustrator 19.0.0, SVG Export Plug-In . SVG Version: 6.00 Build 0)  -->
<svg version="1.1" baseProfile="tiny" id="Layer_1" xmlns="http://www.w3.org/2000/svg" xmlns:xlink="http://www.w3.org/1999/xlink"
	 x="0px" y="0px" width="500px" height="500px" viewBox="-47 170.9 500 500" xml:space="preserve">
<path d="M78.5,531.1c-8.6,0-16.4-5.4-19.2-13.3c-1.9-5.2-1.6-10.7,0.7-15.8c2.3-4.9,6.3-8.6,11.4-10.5c2.1-0.7,4.6-1.1,7.3-1.1
	c0.8,0,1.6,0,2.4,0.1l3.1,0.2l50.8-85.7l-2-2.7c-1.5-2-2.6-3.8-3.3-5.8c-1.9-5.1-1.6-10.7,0.7-15.7c2.3-4.9,6.3-8.6,11.4-10.5
	c2.3-0.8,4.6-1.2,7-1.2c8.6,0,16.4,5.4,19.2,13.3c1.3,3.5,1.6,7,1.1,10.6l-0.6,3.9l87.4,35.5l2.3-2c2.7-2.3,5.1-3.8,7.4-4.7
	c3-0.8,5.2-1.1,7.3-1.1c0.5,0,1,0,1.5,0.1l3.3,0.3l39.3-76.5l-3-2.6c-2.8-2.4-4.7-5.2-5.6-7.9l-0.1-0.2c-1.9-5.1-1.6-10.7,0.7-15.7
	c2.3-4.9,6.3-8.6,11.4-10.5c2.3-0.8,4.6-1.2,7-1.2c8.6,0,16.4,5.4,19.2,13.3l0,0.1c1.9,5,1.7,10.4-0.6,15.4
	c-2.3,5-6.4,8.9-11.3,10.7l-0.2,0.1c-2.3,0.9-4.7,1.3-8.2,1.3h-3L284,427.8l2.6,2.6c2.4,2.4,4.3,5.2,5.2,7.9
	c1.9,5.2,1.6,10.8-0.7,15.8c-2.3,4.9-6.3,8.6-11.4,10.5c-2.3,0.8-4.6,1.2-7,1.2h0c-8.6,0-16.3-5.3-19.2-13.2c-1-3.1-1.3-6.4-1.1-9.8
	l0.3-3.6l-87.6-35.8l-2.3,1.9c-2.2,1.8-4.4,3.1-6.5,3.8l-0.1,0c-2.3,0.8-4.7,1.3-7.1,1.3c-1.4,0-2.9-0.2-4.3-0.5l-3.5-0.7L90.6,494
	l2.8,2.8c1.7,1.7,3.1,4,4.3,7.1c1.8,5,1.6,10.6-0.7,15.5c-2.3,5-6.4,8.7-11.4,10.6C83.2,530.7,80.9,531.1,78.5,531.1z"/>
</svg>
