<?xml version="1.0" encoding="utf-8"?>
<svg version="1.1" id="Layer_1" xmlns="http://www.w3.org/2000/svg" xmlns:xlink="http://www.w3.org/1999/xlink" x="0px" y="0px"
	 viewBox="-47 170.9 500 500" style="enable-background:new -47 170.9 500 500;" xml:space="preserve">
<path d="M212.6,457.6l74.2-42.8v85.7l-74.2,42.8V457.6z M119.2,500.4l74.2,42.8v-85.7l-74.2-42.8V500.4z M453,420.9
	c0,138.1-111.9,250-250,250S-47,559-47,420.9s111.9-250,250-250S453,282.8,453,420.9z M147.4,350.6l55.6,55.5l55.5-55.6L245,337
	l-32.3,32.5v-89l-9.6-9.6l-9.6,9.6v89L161,337L147.4,350.6z M305.9,392.7L258,365l-14,14l33.2,19.2L203,441l-74.2-42.8L162,379
	l-14-14l-47.9,27.6v118.9L203,570.9l102.9-59.4V392.7z"/>
</svg>
