<?xml version="1.0" encoding="utf-8"?>
<!-- Generator: Adobe Illustrator 19.2.0, SVG Export Plug-In . SVG Version: 6.00 Build 0)  -->
<svg version="1.1" id="Layer_1" xmlns="http://www.w3.org/2000/svg" xmlns:xlink="http://www.w3.org/1999/xlink" x="0px" y="0px"
	 viewBox="0 0 16 16" style="enable-background:new 0 0 16 16;" xml:space="preserve">
<path d="M8.8,2l0.3,1l0.2,0.4l0.4,0.2c0.1,0,0.1,0,0.2,0.1l0.4,0.2l0.4-0.2l0.9-0.4l1.1,1.1l-0.4,0.9l-0.2,0.4l0.2,0.4
	c0,0.1,0.1,0.1,0.1,0.2l0.2,0.4L13,6.9l1,0.3v1.6l-1,0.3l-0.4,0.2l-0.2,0.4c0,0.1-0.1,0.1-0.1,0.2l-0.2,0.4l0.2,0.4l0.4,0.9
	l-1.1,1.1l-0.9-0.4l-0.4-0.2l-0.4,0.2c-0.1,0-0.1,0.1-0.2,0.1l-0.4,0.2L9.1,13l-0.3,1H7.2l-0.3-1l-0.2-0.4l-0.4-0.2
	c-0.1,0-0.1-0.1-0.2-0.1l-0.4-0.2l-0.4,0.2l-0.9,0.4l-1.1-1.1l0.4-0.9l0.2-0.4L3.7,9.9c0-0.1-0.1-0.1-0.1-0.2L3.4,9.3L3,9.1L2,8.8
	V7.2l1-0.3l0.4-0.2l0.2-0.4c0-0.1,0-0.1,0.1-0.2l0.2-0.4L3.6,5.3L3.2,4.3l1.1-1.1l0.9,0.4l0.4,0.2l0.4-0.2c0.1,0,0.1-0.1,0.2-0.1
	l0.4-0.2L6.9,3l0.3-1H8.8 M9.5,1H8.8H7.2H6.5L6.3,1.6l-0.4,1c-0.1,0-0.2,0.1-0.2,0.1l-1-0.5L4.1,2L3.6,2.5L2.5,3.6L2,4.1l0.3,0.6
	l0.5,1c0,0.1-0.1,0.2-0.1,0.2l-1,0.4L1,6.5v0.7v1.6v0.7l0.6,0.2l1,0.4c0,0.1,0.1,0.2,0.1,0.2l-0.5,1L2,11.9l0.5,0.5l1.1,1.1L4.1,14
	l0.6-0.3l1-0.5c0.1,0,0.2,0.1,0.2,0.1l0.4,1L6.5,15h0.7h1.6h0.7l0.2-0.6l0.4-1c0.1,0,0.2-0.1,0.2-0.1l1,0.5l0.6,0.3l0.5-0.5l1.1-1.1
	l0.5-0.5l-0.3-0.6l-0.5-1c0-0.1,0.1-0.2,0.1-0.2l1-0.4L15,9.5V8.8V7.2V6.5l-0.6-0.2l-1-0.4c0-0.1-0.1-0.2-0.1-0.2l0.5-1L14,4.1
	l-0.5-0.5l-1.1-1.1L11.9,2l-0.6,0.3l-1,0.5c-0.1,0-0.2-0.1-0.2-0.1l-0.4-1L9.5,1L9.5,1z M8,6.5c0.8,0,1.5,0.7,1.5,1.5S8.8,9.5,8,9.5
	S6.5,8.8,6.5,8S7.2,6.5,8,6.5 M8,5.5C6.6,5.5,5.5,6.6,5.5,8s1.1,2.5,2.5,2.5s2.5-1.1,2.5-2.5S9.4,5.5,8,5.5L8,5.5z"/>
</svg>
