<?xml version="1.0" encoding="utf-8"?>
<svg version="1.1" id="Layer_1" xmlns="http://www.w3.org/2000/svg" xmlns:xlink="http://www.w3.org/1999/xlink" x="0px" y="0px"
	 viewBox="-47 170.9 500 500" style="enable-background:new -47 170.9 500 500;" xml:space="preserve">
<path d="M247.1,270.9L53,465l105.9,105.9L353,376.8L247.1,270.9z M70.6,465l176.5-176.5l88.2,88.2L158.9,553.2L70.6,465z
	 M295.6,363.5l4.4-4.4l-35.3-35.3l-4.4,4.4c-7.3,7.3-19.2,7.3-26.5,0l-4.4-4.4L105.9,447.4l4.4,4.4c7.3,7.3,7.3,19.2,0,26.5
	l-4.4,4.4l35.3,35.3l4.4-4.4c7.3-7.3,19.2-7.3,26.5,0l4.4,4.4L300,394.5l-4.4-4.4C288.3,382.7,288.3,370.8,295.6,363.5z
	 M220.6,403.2c14.3,14.3,18.4,34.6,8.8,44.1s-29.8,5.5-44.1-8.8c-14.3-14.3-18.4-34.4-8.9-44l0.2-0.2
	C186.3,384.9,206.4,389,220.6,403.2z M176.1,500.7c-10.4-6.9-24-6.9-34.4,0l-18.5-18.5c6.9-10.4,6.9-24,0-34.4l35.9-35.9
	c1,12,6.9,24.9,17.5,35.5c10.5,10.5,23.5,16.5,35.5,17.5L176.1,500.7z M282.9,394L247,429.9c-1-12-6.9-24.9-17.5-35.5
	C219,383.9,206,377.9,194,376.9l35.9-35.9c10.4,6.9,24,6.9,34.4,0l18.5,18.5C276,370,276,383.6,282.9,394z"/>
</svg>
