<?xml version="1.0" encoding="utf-8"?>
<!-- Generator: Adobe Illustrator 19.2.0, SVG Export Plug-In . SVG Version: 6.00 Build 0)  -->
<svg version="1.1" id="Layer_1" xmlns="http://www.w3.org/2000/svg" xmlns:xlink="http://www.w3.org/1999/xlink" x="0px" y="0px"
	 viewBox="0 0 16 16" style="enable-background:new 0 0 16 16;" xml:space="preserve">
<style type="text/css">
	.st0{fill:#231F20;}
</style>
<g>
	<path class="st0" d="M9,7.5c-0.1,0-0.3,0-0.4-0.1c-0.2-0.2-0.2-0.5,0-0.7l3.5-3.5c0.2-0.2,0.5-0.2,0.7,0s0.2,0.5,0,0.7L9.4,7.4
		C9.3,7.5,9.1,7.5,9,7.5z"/>
</g>
<g>
	<path class="st0" d="M12.5,7C12.2,7,12,6.8,12,6.5V4H9.5C9.2,4,9,3.8,9,3.5S9.2,3,9.5,3h3C12.8,3,13,3.2,13,3.5v3
		C13,6.8,12.8,7,12.5,7z"/>
</g>
<g>
	<path class="st0" d="M3.5,13c-0.1,0-0.3,0-0.4-0.1c-0.2-0.2-0.2-0.5,0-0.7l3.5-3.5c0.2-0.2,0.5-0.2,0.7,0s0.2,0.5,0,0.7l-3.5,3.5
		C3.8,13,3.6,13,3.5,13z"/>
</g>
<g>
	<path class="st0" d="M6.5,13h-3C3.2,13,3,12.8,3,12.5v-3C3,9.2,3.2,9,3.5,9S4,9.2,4,9.5V12h2.5C6.8,12,7,12.2,7,12.5S6.8,13,6.5,13
		z"/>
</g>
</svg>
