<?xml version="1.0" encoding="utf-8"?>
<!-- Generator: Adobe Illustrator 19.2.0, SVG Export Plug-In . SVG Version: 6.00 Build 0)  -->
<svg version="1.1" id="Layer_1" xmlns="http://www.w3.org/2000/svg" xmlns:xlink="http://www.w3.org/1999/xlink" x="0px" y="0px"
	 viewBox="0 0 16 16" style="enable-background:new 0 0 16 16;" xml:space="preserve">
<path d="M12.5,14h-9C3.2,14,3,13.8,3,13.5v-11C3,2.2,3.2,2,3.5,2h6c0.1,0,0.3,0.1,0.4,0.1l3,3C12.9,5.2,13,5.4,13,5.5v8
	C13,13.8,12.8,14,12.5,14z M4,13h8V5.7L9.3,3H4V13z M10,9H6C5.7,9,5.5,8.8,5.5,8.5S5.7,8,6,8h4c0.3,0,0.5,0.2,0.5,0.5S10.3,9,10,9z
	 M9,6.5C9,6.2,8.8,6,8.5,6H6C5.7,6,5.5,6.2,5.5,6.5S5.7,7,6,7h2.5C8.8,7,9,6.8,9,6.5z M10.5,10.5c0-0.3-0.2-0.5-0.5-0.5H6
	c-0.3,0-0.5,0.2-0.5,0.5S5.7,11,6,11h4C10.3,11,10.5,10.8,10.5,10.5z"/>
</svg>
