<?xml version="1.0" encoding="utf-8"?>
<svg version="1.1" id="Layer_1" xmlns="http://www.w3.org/2000/svg" xmlns:xlink="http://www.w3.org/1999/xlink" x="0px" y="0px"
	 viewBox="-47 170.9 500 500" style="enable-background:new -47 170.9 500 500;" xml:space="preserve">
<path d="M272.2,551.7c-72.1,0-130.9-58.7-130.9-130.9c0-41.6,20.1-81.2,53.8-105.7c1.2-0.9,2.6-1.3,4.1-1.3c2.2,0,4.3,1.1,5.6,2.9
	c2.3,3.1,1.6,7.5-1.5,9.7c-30.1,22-48,57.3-48,94.5c0,64.5,52.4,116.9,116.9,116.9c64.5,0,116.9-52.4,116.9-116.9
	c0-60-46.8-111.2-106.6-116.4l-3.4-0.3v44.5c0,3.8-3.1,7-7,7c-3.8,0-7-3.1-7-7V297c0-3.8,3.1-7,7-7c72.1,0,130.8,58.7,130.8,130.8
	C403,493,344.3,551.7,272.2,551.7z M275.7,424.4c1.9-3.3,0.8-7.6-2.5-9.5l-56.3-32.8c-1.1-0.6-2.3-1-3.5-1c-2.5,0-4.8,1.3-6,3.5
	c-1.9,3.3-0.8,7.6,2.5,9.5l56.3,32.8c1.1,0.6,2.3,0.9,3.5,0.9C272.1,427.9,274.4,426.5,275.7,424.4z M119.7,351.3
	c3.2,0,5.8-2.6,5.8-5.8s-2.6-5.8-5.8-5.8H26.5c-3.2,0-5.8,2.6-5.8,5.8s2.6,5.8,5.8,5.8H119.7z M102,398.6c3.2,0,5.8-2.6,5.8-5.8
	s-2.6-5.8-5.8-5.8H8.8c-3.2,0-5.8,2.6-5.8,5.8s2.6,5.8,5.8,5.8H102z M102,445.9c3.2,0,5.8-2.6,5.8-5.8s-2.6-5.8-5.8-5.8H8.8
	c-3.2,0-5.8,2.6-5.8,5.8s2.6,5.8,5.8,5.8H102z M119.7,493.1c3.2,0,5.8-2.6,5.8-5.8s-2.6-5.8-5.8-5.8H26.5c-3.2,0-5.8,2.6-5.8,5.8
	s2.6,5.8,5.8,5.8H119.7z"/>
</svg>
