<?xml version="1.0" encoding="utf-8"?>
<!-- Generator: Adobe Illustrator 19.2.0, SVG Export Plug-In . SVG Version: 6.00 Build 0)  -->
<svg version="1.1" id="Layer_1" xmlns="http://www.w3.org/2000/svg" xmlns:xlink="http://www.w3.org/1999/xlink" x="0px" y="0px"
	 viewBox="0 0 16 16" style="enable-background:new 0 0 16 16;" xml:space="preserve">
<path d="M8,0C3.6,0,0,3.6,0,8s3.6,8,8,8s8-3.6,8-8S12.4,0,8,0z M8,1c3.9,0,7,3.1,7,7c0,1.4-0.4,2.8-1.2,3.9c-0.5-2-2-3.6-3.9-4.3
	C10.6,7,11,6.2,11,5.2c0-1.7-1.3-3-3-3s-3,1.3-3,3c0,1,0.4,1.8,1.1,2.4c-2,0.7-3.5,2.3-3.9,4.3C1.4,10.8,1,9.4,1,8C1,4.1,4.1,1,8,1z
	 M8,7.2c-1.1,0-2-0.8-2-2c0-1.1,0.9-2,2-2s2,0.9,2,2C10,6.3,9.1,7.2,8,7.2z M8,15c-1.9,0-3.7-0.8-5-2.1c0.1-2.7,2.3-4.7,5-4.7
	c2.7,0,4.8,2.1,5,4.7C11.7,14.2,9.9,15,8,15z"/>
</svg>
