<?xml version="1.0" encoding="utf-8"?>
<!-- Generator: Adobe Illustrator 19.2.0, SVG Export Plug-In . SVG Version: 6.00 Build 0)  -->
<svg version="1.1" id="Layer_1" xmlns="http://www.w3.org/2000/svg" xmlns:xlink="http://www.w3.org/1999/xlink" x="0px" y="0px"
	 viewBox="0 0 16 16" style="enable-background:new 0 0 16 16;" xml:space="preserve">
<path d="M13.5,7c-0.4,0-0.7,0.2-0.8,0.5H5.9C5.8,7.2,5.6,6.9,5.2,6.7c0.3-1,1.2-2.2,3.3-2.2h0.6C9.3,4.8,9.6,5,10,5c0.6,0,1-0.4,1-1
	s-0.4-1-1-1C9.6,3,9.3,3.2,9.2,3.5H8.5c-1.3,0-2.4,0.4-3.2,1.2C4.8,5.3,4.4,5.9,4.3,6.5c-0.5,0.1-1,0.5-1.2,1H2
	C1.7,7.5,1.5,7.7,1.5,8S1.7,8.5,2,8.5h1.1c0.2,0.5,0.6,0.9,1.2,1c0.2,0.6,0.5,1.3,1.1,1.8c0.8,0.8,1.9,1.2,3.2,1.2h2.2
	c0.2,0.3,0.5,0.5,0.8,0.5c0.6,0,1-0.4,1-1s-0.4-1-1-1c-0.4,0-0.7,0.2-0.9,0.5H8.5c-2.1,0-2.9-1.2-3.3-2.2c0.3-0.2,0.5-0.5,0.7-0.8
	h6.7C12.8,8.8,13.1,9,13.5,9c0.6,0,1-0.4,1-1S14.1,7,13.5,7z"/>
</svg>
