<?xml version="1.0" encoding="utf-8"?>
<!-- Generator: Adobe Illustrator 19.2.0, SVG Export Plug-In . SVG Version: 6.00 Build 0)  -->
<svg version="1.1" id="Layer_1" xmlns="http://www.w3.org/2000/svg" xmlns:xlink="http://www.w3.org/1999/xlink" x="0px" y="0px"
	 viewBox="0 0 16 16" style="enable-background:new 0 0 16 16;" xml:space="preserve">
<path d="M12.2,2.8h-1.5v-1c0-0.3-0.2-0.5-0.5-0.5h-3C7,1.2,6.8,1.5,6.8,1.8v1h-3C3.5,2.8,3.2,3,3.2,3.2v6c0,0.3,0.2,0.5,0.5,0.5h1
	v4.5c0,0.3,0.2,0.5,0.5,0.5h2h3h2c0.3,0,0.5-0.2,0.5-0.5v-11C12.8,3,12.5,2.8,12.2,2.8z M11.8,4.8h-6v-1h6V4.8z M7.8,2.2h2v0.5h-2
	V2.2z M4.8,3.8v1H4.2v-1H4.8z M4.2,8.8v-3h0.5v3H4.2z M9.8,9.2h-2c0,0,0,0,0,0V8.8h2V9.2z M7.8,13.8v-3.5c0,0,0,0,0,0h2v3.5H7.8z
	 M10.8,13.8V8.2c0-0.3-0.2-0.5-0.5-0.5h-3C7,7.8,6.8,8,6.8,8.2v5.5h-1V9.2V5.8h6v8H10.8z"/>
</svg>
