<?xml version="1.0" encoding="utf-8"?>
<svg version="1.1" id="Layer_1" xmlns="http://www.w3.org/2000/svg" xmlns:xlink="http://www.w3.org/1999/xlink" x="0px" y="0px"
	 viewBox="-47 170.9 500 500" style="enable-background:new -47 170.9 500 500;" xml:space="preserve">
<path d="M224.8,570.9h-32.9c-3.7,0-6.7-3-6.7-6.7v-25.9c-14.9-2.1-28.3-6.3-40-12.6c-13.2-7.1-24.2-15.3-32.6-24.5
	c-2.3-2.5-2.4-6.4-0.1-9l30.9-34.3c1.3-1.4,3-2.2,4.9-2.2c1.7,0.4,3.7,0.8,4.9,2.1c6.1,6.5,14.1,12.5,23.8,17.7
	c11.9,6.4,26.4,9.6,41.7,6.7c2.9-0.5,5.5-1.5,7.8-2.8c2.1-1.2,3.7-2.7,4.9-4.7c1.1-1.8,1.7-4,1.7-6.9c0-4.7-2.2-8.4-6.9-11.3
	c-6-3.8-16.6-7.6-31.6-11.3l-8.7-2.9c-20.2-5.7-36.2-14.4-47.2-25.7c-11.5-11.8-17.3-26.9-17.3-45.1c0-19.4,6.4-35.5,19-47.8
	c11.2-11,26.2-18.1,44.8-21.4v-24.8c0-3.7,3-6.7,6.7-6.7h32.9c3.7,0,6.7,3,6.7,6.7v24.7c12.9,2.2,23.9,6,32.7,11.4
	c9.6,5.9,17.3,11.6,22.9,17c2.6,2.5,2.8,6.6,0.4,9.3l-29.5,32.9c-2.4,2.7-6.7,3-9.4,0.5c-1.9-1.7-4.3-3.6-7.1-5.6
	c-2.7-2-5.8-3.8-9.2-5.6c-3.4-1.7-7.1-3.2-11.1-4.3c-6.5-1.8-13.6-2.3-22-0.6c-3.3,0.7-6.3,1.7-9,3c-2.3,1.1-4.1,2.6-5.5,4.6
	c-1.2,1.6-1.7,3.3-1.7,5.6c0,4.8,2.1,8,6.7,10.3c6.4,3.3,16.5,6.8,30.1,10.3c8.7,2.1,17.5,5,26.2,8.5c9,3.6,17.2,8.4,24.5,14.2
	c7.4,5.9,13.5,13.3,18,21.8c4.6,8.7,6.9,19.3,6.9,31.6c0,9.8-1.9,18.9-5.6,27c-3.7,8-8.7,15-15,20.9c-6.2,5.8-13.6,10.8-22,14.6
	c-6.6,3-13.7,5.3-21.1,6.9v27.7C231.5,567.9,228.5,570.9,224.8,570.9z M198.5,557.5h19.5v-26.6c0-3.3,2.4-6.1,5.7-6.6
	c8.3-1.3,16.1-3.6,23.3-6.8c7.1-3.2,13.3-7.3,18.4-12.2c5.1-4.8,9.1-10.4,12.1-16.8c2.9-6.3,4.4-13.5,4.4-21.4
	c0-10-1.8-18.6-5.4-25.3c-3.7-6.9-8.5-12.8-14.5-17.6c-6.2-4.9-13.3-9.1-21.2-12.2c-8.1-3.3-16.3-6-24.4-7.9
	c-14.9-3.8-25.7-7.5-33-11.4c-9.1-4.7-13.9-12.4-13.9-22.2c0-5.1,1.5-9.7,4.4-13.6c2.7-3.6,6.1-6.4,10.2-8.5
	c3.7-1.8,7.8-3.2,12.3-4.2c10.5-2.2,19.8-1.6,28.4,0.8c4.8,1.4,9.4,3.1,13.6,5.3c4.1,2.1,7.7,4.3,11,6.7c1,0.7,2,1.5,2.9,2.2
	l20.7-23.1c-4.3-3.5-9.6-7.2-15.8-11c-8.4-5.2-19.5-8.7-33.1-10.4c-3.3-0.4-5.9-3.3-5.9-6.6v-23.8h-19.5v23.8c0,3.4-2.5,6.2-5.8,6.6
	c-18.3,2.3-32.8,8.6-43,18.5c-10.1,9.9-15,22.4-15,38.3c0,14.8,4.4,26.5,13.5,35.8c9.4,9.6,23.4,17.1,41.6,22.2l8.5,2.8
	c16.1,4,27.8,8.2,35.1,12.9c8.5,5.5,13,13.3,13,22.6c0,5.4-1.3,10.1-3.8,14.1c-2.4,3.7-5.6,6.8-9.5,9c-3.6,2.1-7.7,3.6-12,4.4
	c-18.3,3.4-35.9-0.2-50.5-8.1c-8.5-4.6-15.9-9.7-22.1-15.3l-22,24.4c6.8,6.4,15.1,12.3,24.8,17.5c11.7,6.3,25.5,10.2,41,11.8
	c3.4,0.3,6,3.2,6,6.7V557.5z"/>
</svg>
