<?xml version="1.0" encoding="utf-8"?>
<svg version="1.1" id="Layer_1" xmlns="http://www.w3.org/2000/svg" xmlns:xlink="http://www.w3.org/1999/xlink" x="0px" y="0px"
	 viewBox="-47 170.9 500 500" style="enable-background:new -47 170.9 500 500;" xml:space="preserve">
<path id="XMLID_294_" d="M223.4,620.9h-40.5c-3.4,0-6.4-2.2-7.3-5.5l-10.7-35.7l-5-1.6c-5.1-1.4-10.4-3.1-15.5-5.1l-4.7-1.5
	l-30.5,23.1c-2.7,2-6.4,2.1-9.2,0.1L67.6,571c-2.7-2-3.8-5.6-2.7-8.8l12.5-34.6L61.8,506l-38,1c-3.8-0.3-6.5-2.1-7.5-5.3l-12.2-38
	c-1-3.2,0.2-6.8,3-8.7l31.1-21v-26.2l-31.1-21c-2.8-1.9-4-5.4-3-8.7l12.2-38c1-3.2,4.1-5.2,7.5-5.3l38.4,1.1l4.2-5.9
	c1.8-2.7,3.9-5.5,6-8.4l5.1-7l-12.4-34.5c-1.2-3.2-0.1-6.8,2.7-8.8l32.6-23.9c2.7-2,6.5-2,9.2,0.1l29.3,22.2
	c8.8-3.8,17.6-6.8,26.5-8.9l10.3-34.5c1-3.2,4-5.5,7.3-5.5h40.5c3.4,0,6.4,2.2,7.3,5.5l10.3,34.5c8.8,2.1,17.6,5.1,26.3,8.9
	l29.4-22.3c2.7-2.1,6.4-2.1,9.2-0.1l32.6,24c2.7,2,3.8,5.6,2.7,8.8l-12.3,34.1l15.6,21.6l37.7-1c3.3,0.1,6.5,2.1,7.5,5.3l12.3,38.2
	c1,3.2-0.2,6.8-3,8.7l-30.8,20.8V434l30.8,20.8c2.8,1.9,4,5.4,3,8.7l-12.3,38.2c-1,3.2-3.8,5-7.5,5.3l-37.7-1l-15.6,21.6l12.3,34.1
	c1.2,3.2,0.1,6.8-2.7,8.8l-32.6,24c-2.7,2-6.5,2-9.2-0.1l-30.1-22.8l-7.5,2.4c-3.8,1.4-7.9,2.8-12.1,4l-5.7,1.9l-10.7,35.7
	C229.8,618.7,226.8,620.9,223.4,620.9z M188.6,605.6h29.1l10.2-34c0.7-2.4,2.6-4.3,5-5.1l9.8-3.2c4.2-1.2,7.9-2.4,11.6-3.8l11.5-3.8
	c2.4-0.8,5-0.3,7,1.2l28.7,21.8l23.4-17.2L313,528.9c-0.9-2.4-0.5-5,1-7.1l20.3-28.1c1.5-2.1,3.6-3.4,6.4-3.2l36,1l8.7-27.2
	l-29.4-19.9c-2.1-1.4-3.4-3.8-3.4-6.3v-34.3c0-2.5,1.3-4.9,3.4-6.3l29.4-19.9l-8.7-27.2l-36,1c-2.5,0.1-4.9-1.1-6.4-3.2L314.1,320
	c-1.5-2.1-1.9-4.7-1-7.1l11.8-32.6l-23.4-17.2L273,284.7c-2.3,1.7-5.3,2-7.9,0.9c-10.5-4.9-21.2-8.5-31.7-10.7
	c-2.8-0.6-5-2.6-5.8-5.3l-10-33.4h-29.1l-9.9,33.3c-0.8,2.7-3,4.7-5.8,5.3c-10.6,2.2-21.3,5.8-31.9,10.7c-2.6,1.2-5.6,0.9-7.9-0.9
	l-28.4-21.5l-23.3,17.2l11.9,32.9c0.9,2.4,0.5,5-1,7.1l-7.6,10.5c-2,2.7-4,5.3-5.7,7.9l-6.8,9.4c-1.5,2.1-4.1,3.1-6.4,3.2l-36.7-1
	l-8.7,27l29.7,20.1c2.1,1.4,3.4,3.8,3.4,6.3v34.3c0,2.5-1.3,4.9-3.4,6.3l-29.7,20.1l8.7,27l36.3-1c2.7-0.2,4.9,1.1,6.4,3.2
	l20.3,28.1c1.5,2.1,1.9,4.7,1,7.1L81.3,562l23.1,17l29.1-22.1c2-1.5,4.6-2,7-1.2l8.9,2.9c5,1.9,9.9,3.5,14.8,4.8l9.2,3
	c2.4,0.8,4.3,2.7,5,5.1L188.6,605.6z M203,529.3c-60.1,0-109-48.9-109-109c0-60.1,48.9-109,109-109c60.1,0,109,48.9,109,109
	C312,480.4,263.1,529.3,203,529.3z M203,326.6c-51.7,0-93.7,42-93.7,93.7s42,93.7,93.7,93.7s93.7-42,93.7-93.7
	S254.7,326.6,203,326.6z"/>
</svg>
