<?xml version="1.0" encoding="utf-8"?>
<svg version="1.1" id="Layer_1" xmlns="http://www.w3.org/2000/svg" xmlns:xlink="http://www.w3.org/1999/xlink" x="0px" y="0px"
	 viewBox="-47 170.9 500 500" style="enable-background:new -47 170.9 500 500;" xml:space="preserve">
<path d="M251.7,418.1c11.7-12.2,19-28.6,19-46.8c0-37.3-30.4-67.7-67.7-67.7s-67.7,30.4-67.7,67.7c0,18.2,7.3,34.7,19,46.8
	C108.2,434.3,78,473.8,78,523.8c0,8,6.5,14.4,14.4,14.4s14.4-6.5,14.4-14.4c0-50,39.5-84.8,96.1-84.8s96.1,34.9,96.1,84.8
	c0,8,6.5,14.4,14.4,14.4c8,0,14.4-6.5,14.4-14.4C328,473.8,297.8,434.3,251.7,418.1z M164.2,371.2c0-21.4,17.4-38.8,38.8-38.8
	s38.8,17.4,38.8,38.8c0,21.4-17.4,38.8-38.8,38.8S164.2,392.6,164.2,371.2z"/>
</svg>
