<?xml version="1.0" encoding="utf-8"?>
<!-- Generator: Adobe Illustrator 19.2.0, SVG Export Plug-In . SVG Version: 6.00 Build 0)  -->
<svg version="1.1" id="Layer_1" xmlns="http://www.w3.org/2000/svg" xmlns:xlink="http://www.w3.org/1999/xlink" x="0px" y="0px"
	 viewBox="0 0 16 16" style="enable-background:new 0 0 16 16;" xml:space="preserve">
<path d="M10.5,5.5C9.1,5.5,8,6.6,8,8c0,1.4,1.1,2.5,2.5,2.5c1.4,0,2.5-1.1,2.5-2.5C13,6.6,11.9,5.5,10.5,5.5z M10.5,9.5
	C9.7,9.5,9,8.8,9,8s0.7-1.5,1.5-1.5S12,7.2,12,8S11.3,9.5,10.5,9.5z M5.5,8.5C4.1,8.5,3,9.6,3,11s1.1,2.5,2.5,2.5S8,12.4,8,11
	S6.9,8.5,5.5,8.5z M5.5,12.5C4.7,12.5,4,11.8,4,11s0.7-1.5,1.5-1.5S7,10.2,7,11S6.3,12.5,5.5,12.5z M5.5,7.5C6.9,7.5,8,6.4,8,5
	S6.9,2.5,5.5,2.5S3,3.6,3,5S4.1,7.5,5.5,7.5z M5.5,3.5C6.3,3.5,7,4.2,7,5S6.3,6.5,5.5,6.5S4,5.8,4,5S4.7,3.5,5.5,3.5z"/>
</svg>
