<?xml version="1.0" encoding="utf-8"?>
<!-- Generator: Adobe Illustrator 19.0.0, SVG Export Plug-In . SVG Version: 6.00 Build 0)  -->
<svg version="1.1" baseProfile="tiny" id="Layer_1" xmlns="http://www.w3.org/2000/svg" xmlns:xlink="http://www.w3.org/1999/xlink"
	 x="0px" y="0px" width="1000px" height="1000px" viewBox="0 0 1000 1000" xml:space="preserve">
<path d="M665.3,545.9c-9.5,0-18.2-4-24.5-10.3c-6.3-6.3-10.3-15.8-10.3-24.5c0-9.5,4-18.2,10.3-24.5L790.3,337L663,209.7
	L513.4,359.2c-6.3,6.3-15.8,10.3-24.5,10.3c-9.5,0-18.2-4-24.5-10.3c-13.4-13.4-13.4-35.6,0-49.8l174.1-174.8
	c6.3-6.3,15.8-10.3,24.5-10.3c8.7,0,18.2,4,24.5,10.3l177.2,177.2c6.3,6.3,10.3,15.8,10.3,24.5c0,9.5-4,18.2-10.3,24.5L689.9,535.6
	C683.5,542.7,674.8,545.9,665.3,545.9z M360.8,865.5l174.8-174.8c13.4-13.4,13.4-35.6,0-49.8c-6.3-6.3-15.8-10.3-24.5-10.3l0,0
	c-9.5,0-18.2,4-24.5,10.3L337,790.3L209.7,663l149.5-149.5c6.3-6.3,10.3-15.8,10.3-24.5s-4-18.2-10.3-24.5
	c-6.3-6.3-15.8-10.3-24.5-10.3c-9.5,0-18.2,4-24.5,10.3L135.3,639.2c-6.3,6.3-10.3,15.8-10.3,24.5c0,9.5,4,18.2,10.3,24.5
	l177.2,177.2c6.3,6.3,15.8,10.3,24.5,10.3C344.9,875.8,353.6,871.8,360.8,865.5z M396.4,651.9l260.3-260.3
	c6.3-6.3,10.3-15.8,10.3-24.5c0-9.5-4-18.2-10.3-24.5c-6.3-6.3-15.8-10.3-24.5-10.3c-9.5,0-18.2,4-24.5,10.3L347.3,602.8
	c-6.3,6.3-10.3,15.8-10.3,24.5c0,8.7,4,18.2,10.3,24.5c6.3,6.3,15.8,10.3,24.5,10.3S390,659,396.4,651.9z"/>
</svg>
