<?xml version="1.0" encoding="utf-8"?>
<!-- Generator: Adobe Illustrator 19.2.0, SVG Export Plug-In . SVG Version: 6.00 Build 0)  -->
<svg version="1.1" id="Layer_1" xmlns="http://www.w3.org/2000/svg" xmlns:xlink="http://www.w3.org/1999/xlink" x="0px" y="0px"
	 viewBox="0 0 16 16" style="enable-background:new 0 0 16 16;" xml:space="preserve">
<path d="M13.5,14V6h-2V4h-2V2h-1V1h-1v1h-1v2h-2v2h-2v8h-1v1h13v-1H13.5z M10.5,5v1h-1V5H10.5z M7.5,5h1v1h-1V5z M7.5,3h1v1h-1V3z
	 M5.5,5h1v1h-1V5z M5.5,14v-2h1v2H5.5z M9.5,14v-2h1v2H9.5z M11.5,14v-3h-3v3h-1v-3h-3v3h-1V7h9v7H11.5z M8.5,8h1v2h-1V8z M10.5,8h1
	v2h-1V8z M6.5,8h1v2h-1V8z M4.5,8h1v2h-1V8z"/>
</svg>
