<?xml version="1.0" encoding="utf-8"?>
<svg version="1.1" id="Layer_1" xmlns="http://www.w3.org/2000/svg" xmlns:xlink="http://www.w3.org/1999/xlink" x="0px" y="0px"
	 viewBox="-47 170.9 500 500" style="enable-background:new -47 170.9 500 500;" xml:space="preserve">
<path id="XMLID_251_" d="M252.8,551.4l-0.1-0.3h-0.5c-7,0-11.3-4-11.3-10v-57h-76.8v57c0,5.9-4.3,10.2-10.2,10.2h-63
	c-5.9,0-10.3-4.3-10.3-10.2V427.4l-10.2,9.4c-1.9,1.9-4.4,2.9-7.1,2.9c-2.7,0-5.2-1.1-7.2-3c-2-2-3-4.5-3-7.2c0-2.7,1.1-5.2,3.1-7.2
	l25.6-23.7l-1.1-52c0-5.5,4.5-10,10-10c5.5,0,10,4.5,10,10V381l94.7-87.8c1.9-1.9,4.4-2.9,7.1-2.9c2.7,0,5.2,1.1,7.2,3l140.2,130
	c2,2,3.1,4.6,3.1,7.3c0,2.6-1.1,5.2-3,7.2c-2.1,2.1-4.3,3-7.2,3c-1.9,0-5-0.8-7.2-3l-11.2-10.3v113.8c0,5.9-4.3,10.2-10.3,10.2
	H252.8z M303.9,531V407l-101.4-92.3L99.9,409.4L101,531h42.6v-57c0-5.9,4.3-10.2,10.3-10.2h97.3c5.9,0,10.2,4.3,10.2,10.2v57H303.9z
	"/>
</svg>
