<?xml version="1.0" encoding="utf-8"?>
<!-- Generator: Adobe Illustrator 19.2.0, SVG Export Plug-In . SVG Version: 6.00 Build 0)  -->
<svg version="1.1" id="Layer_1" xmlns="http://www.w3.org/2000/svg" xmlns:xlink="http://www.w3.org/1999/xlink" x="0px" y="0px"
	 viewBox="0 0 16 16" style="enable-background:new 0 0 16 16;" xml:space="preserve">
<path d="M8,1C4.1,1,1,4.1,1,8c0,3.9,3.1,7,7,7s7-3.1,7-7C15,4.1,11.9,1,8,1z M13.9,8.4l-0.5-1.5c0-0.1-0.1-0.2-0.2-0.2l-2-0.5
	l-0.4-0.8L11.8,4c0,0,0,0,0-0.1L12,3.5c1.2,1.1,2,2.7,2,4.4C14,8.2,13.9,8.4,13.9,8.4z M8.8,2.8l-0.4,2L8.2,4.7
	C8.1,4.7,8.1,4.6,8,4.6s-0.1,0-0.2,0.1l-1,1C6.7,5.8,6.7,5.9,6.7,6l0.5,1.6c0,0.1,0.1,0.2,0.2,0.2L8.9,8l0.8,0.6L9.1,9.7
	c0,0,0,0,0,0.1l-0.5,1.8l-0.9,1.1l-0.4-2.1c0-0.1,0-0.1-0.1-0.2L6.2,9.7V9.1l0.7-1.2c0-0.1,0-0.2,0-0.3c0-0.1-0.1-0.1-0.2-0.1L4,7.7
	L2.3,6.1c0.1-0.3,0.2-0.6,0.4-0.8c0.2-0.4,0.5-0.7,0.7-1.1C4.5,2.8,6.1,2,8,2c0.1,0,0.2,0,0.3,0C8.4,2.2,8.8,2.8,8.8,2.8z M8,14
	c-3.3,0-6-2.7-6-6c0-0.3,0-0.7,0.1-1l1.3,1.3C3.5,8.4,3.7,8.5,4,8.5c0,0,0,0,0.1,0l1.7-0.2L5.5,8.7C5.4,8.8,5.4,9,5.4,9.1v0.6
	c0,0.3,0.1,0.5,0.3,0.6l0.8,0.6l0.3,1.9c0.1,0.3,0.3,0.5,0.6,0.6c0.1,0,0.1,0,0.2,0c0.2,0,0.5-0.1,0.6-0.3L9.1,12
	c0.1-0.1,0.1-0.2,0.2-0.3l0.5-1.7l0.6-1c0.2-0.3,0.1-0.8-0.2-1L9.4,7.4C9.3,7.3,9.2,7.2,9,7.2L7.9,7L7.6,6.1L8,5.6
	c0.1,0,0.2,0.1,0.3,0.1c0.1,0,0.2,0,0.2,0C8.9,5.6,9.1,5.3,9.1,5l0.4-2c0-0.2,0-0.4-0.1-0.5C9.4,2.3,9.4,2.2,9.3,2.1
	c0.7,0.2,1.4,0.5,2.1,0.9c0,0.1-0.1,0.1-0.1,0.2l-0.1,0.4L10.2,5c-0.2,0.2-0.2,0.5,0,0.8l0.4,0.8c0.1,0.2,0.3,0.4,0.5,0.4l1.7,0.4
	l0.4,1.2c0.1,0.3,0.4,0.5,0.7,0.5C13.3,11.9,10.9,14,8,14z"/>
</svg>
