<?xml version="1.0" encoding="utf-8"?>
<!-- Generator: Adobe Illustrator 19.2.0, SVG Export Plug-In . SVG Version: 6.00 Build 0)  -->
<svg version="1.1" id="Layer_1" xmlns="http://www.w3.org/2000/svg" xmlns:xlink="http://www.w3.org/1999/xlink" x="0px" y="0px"
	 viewBox="0 0 16 16" style="enable-background:new 0 0 16 16;" xml:space="preserve">
<path d="M9.9,7.6C10.6,7,11,6.2,11,5.2c0-1.7-1.3-3-3-3s-3,1.3-3,3C5,6.2,5.4,7,6.1,7.6C3.7,8.4,2,10.6,2,13.2
	c0,0.3,0.2,0.5,0.5,0.5S3,13.5,3,13.2c0-2.8,2.2-5,5-5s5,2.2,5,5c0,0.3,0.2,0.5,0.5,0.5s0.5-0.2,0.5-0.5C14,10.6,12.3,8.4,9.9,7.6z
	 M6,5.2c0-1.1,0.9-2,2-2c1.1,0,2,0.9,2,2c0,1.1-0.9,2-2,2c0,0,0,0,0,0s0,0,0,0C6.9,7.2,6,6.4,6,5.2z"/>
</svg>
