<?xml version="1.0" encoding="utf-8"?>
<svg version="1.1" id="Layer_1" xmlns="http://www.w3.org/2000/svg" xmlns:xlink="http://www.w3.org/1999/xlink" x="0px" y="0px"
	 viewBox="0 0 500 500" style="enable-background:new 0 0 500 500;" xml:space="preserve">
<path d="M408.7,241.4l-25.3-39.8c-1.4-2.8-3.7-4.7-6.6-6.6l-5.2-3.3c-3.3-1.9-7.5-3.3-11.2-3.3c-1.4,0-4.7,0-8,0
	c-3.7,0-7,1.4-9.8,4.7c-2.3,2.8-2.8,5.2-2.8,8v45.4c0,4.7,3.3,8,8,8h54.3C408.7,254.5,412.4,246.6,408.7,241.4z M313.1,188.5h-76.8
	c-7.5,0-14.1,6.6-15,13.6v42.2c0,7,5.6,13.6,13.6,13.6h68.4c4.7,0,9.4-3.7,12.6-7c2.8-2.8,4.2-6.1,4.7-9.4l6.1-39.3
	C326.7,195,321.1,188.5,313.1,188.5z M201.7,189.9c-1.9-0.9-3.7-1.4-6.1-1.4h-89c-16.4,0-29.5,13.1-29.5,29.5v26.2
	c0,7,6.1,13.6,13.6,13.6h78.2c11.2,0,21.1-7,25.3-17.3l13.1-33.7C209.6,200.7,207.7,193.2,201.7,189.9z M201.2,204.9l-13.1,33.7
	c-2.8,8-10.8,13.1-19.2,13.1H90.6c-4.2,0-7-3.7-7-7v-26.2c0-12.6,10.3-23,23-23h89V195c1.4,0,2.3,0.5,3.3,0.9
	C201.7,197.4,202.6,201.1,201.2,204.9z M138,300.4h-1.4c-7.5,0-15,3.3-20.6,8.9c-5.2,6.1-8,13.1-8,21.5c0,15.9,13.1,28.6,29,28.6
	h1.4c7.5,0,15-3.3,20.6-8.9c5.2-6.1,8-13.1,8-21.5C167,313.1,153.9,300.4,138,300.4z M136.6,346.3c-8,0-15.5-7-15.9-15.9
	c0-4.2,1.9-8.9,4.7-11.7c3.7-3.3,8-5.2,11.7-5.2c9.4,0,15.9,7,16.4,15.9C153.4,338.8,145.9,345.9,136.6,346.3z M368.4,300.9
	c-15.9,0-29,13.6-29,29.5s13.1,29,29,29c16.9,0,29.5-14.5,29.5-29C397.9,314,384.8,300.9,368.4,300.9z M368.4,346.3
	c-8.9,0-15.9-7-15.9-15.9c0-9.4,7-16.9,15.9-16.9c9.4,0,16.9,7.5,16.9,16.9C385.3,338.8,377.3,346.3,368.4,346.3z M450.4,260.3
	c-0.5-7.2-1.6-11.6-3.9-15.6c-0.6-1.1-24.9-43.8-41.2-64.9c-11.1-13.2-26.4-20.4-42.9-20.4h-260c-29.2,0-52.9,23.5-52.9,52.5v100.2
	c0,15.2,12.4,27.6,27.6,27.6h28.6V335c0-1.1-0.2-2.1-0.3-3.1c-0.1-0.3-0.1-0.5-0.1-0.7c0-9.2,2.8-16.9,8.5-23.4
	c6.3-6.3,14.5-9.9,22.4-9.9h1.4c17.6,0,31.9,13.9,31.9,30.9c0,2.2,0,3.8-0.4,5.6L168,340h169v-4.7c0-1.1-0.2-2.1-0.3-3.1
	c-0.1-0.3-0.1-0.5-0.1-0.7c0-9.2,2.8-16.9,8.5-23.4c6.3-6.3,14.5-9.9,22.4-9.9h1.4c17.6,0,31.8,13.9,31.8,30.9c0,2.2,0,3.8-0.4,5.6
	l-1.1,5.6h21.2c16.5,0,30-13.4,30-30V260.3z M416.2,286.9c-0.5,0-0.9-0.5-0.9-0.9v-11.7c0-0.5,0.5-0.9,0.9-0.9l0,0h5.2V287h-5.2
	V286.9z M427.9,273.3H441v13.6h-13.1V273.3z M420.4,331.3h-10.3c0-0.6,0-1.2,0-1.9c0-22.2-18.5-40.3-41.2-40.3h-1.4
	c-10.5,0-21.1,4.6-29.3,12.8c-7.1,8.1-10.8,17.8-11,28.8H178.7c0-0.6,0-1.2,0-1.9c0-22.2-18.5-40.3-41.2-40.3h-1.4
	c-10.5,0-21.1,4.6-29.3,12.8c-7.1,8.1-10.8,17.8-11,28.8H77.1c-10.1,0-18.3-8.2-18.3-18.3V305c0.5,0.1,0.9,0.2,1.4,0.2h16.9
	c4.2,0,7-2.8,7-7v-24.8c0-3.7-3.3-7-7-7H60.2c-0.5,0-0.9,0.1-1.4,0.2v-54.5c0-23.4,19.9-43.1,43.6-43.1h260
	c13.7,0,26.4,6.1,35.6,16.9c13.9,17.9,35.4,54.7,40.4,63.6l0,0c1.3,2.2,2.2,5,2.7,11.3v6.1h-24.8c-4.2,0-7.5,3.3-7.5,7.5v11.7
	c0,4.2,3.3,7.5,7.5,7.5H441v17.3C441,322.3,431.9,331.3,420.4,331.3z M60.2,298.6l0.5-25.3l16.9,0.5v24.8c0,0.5-0.5,0.5-0.5,0.5
	L60.2,298.6z"/>
</svg>
