<?xml version="1.0" encoding="utf-8"?>
<!-- Generator: Adobe Illustrator 19.2.0, SVG Export Plug-In . SVG Version: 6.00 Build 0)  -->
<svg version="1.1" id="Layer_1" xmlns="http://www.w3.org/2000/svg" xmlns:xlink="http://www.w3.org/1999/xlink" x="0px" y="0px"
	 viewBox="0 0 16 16" style="enable-background:new 0 0 16 16;" xml:space="preserve">
<path d="M13.4,12.5c1-1.2,1.6-2.8,1.6-4.5c0-1.7-0.6-3.2-1.6-4.5l0,0c0,0,0,0,0,0c-0.2-0.2-0.3-0.4-0.5-0.5
	c-0.1-0.1-0.1-0.1-0.2-0.2c-0.1-0.1-0.2-0.2-0.4-0.3c-0.1-0.1-0.1-0.1-0.2-0.2c-0.1-0.1-0.2-0.2-0.4-0.3C11.7,2.1,11.6,2,11.5,2
	c-0.1-0.1-0.2-0.1-0.4-0.2c-0.1,0-0.2-0.1-0.3-0.1c-0.1-0.1-0.3-0.1-0.4-0.2c-0.1,0-0.2-0.1-0.3-0.1c-0.1,0-0.3-0.1-0.4-0.1
	c-0.1,0-0.2-0.1-0.3-0.1C9.3,1.1,9.2,1.1,9,1.1c-0.1,0-0.2,0-0.2,0C8.5,1,8.3,1,8,1S7.5,1,7.2,1c-0.1,0-0.2,0-0.2,0
	c-0.2,0-0.3,0-0.5,0.1c-0.1,0-0.2,0-0.3,0.1c-0.1,0-0.3,0.1-0.4,0.1c-0.1,0-0.2,0.1-0.3,0.1C5.4,1.5,5.2,1.6,5.1,1.6
	C5,1.7,4.9,1.7,4.8,1.8C4.7,1.8,4.6,1.9,4.5,2C4.4,2,4.3,2.1,4.2,2.1C4.1,2.2,4,2.3,3.8,2.4C3.8,2.4,3.7,2.5,3.6,2.5
	C3.5,2.6,3.4,2.8,3.3,2.9C3.2,2.9,3.1,3,3.1,3C2.9,3.2,2.8,3.4,2.6,3.5c0,0,0,0,0,0l0,0C1.6,4.8,1,6.3,1,8c0,1.7,0.6,3.2,1.6,4.5
	l0,0c0,0,0,0,0,0c0.2,0.2,0.3,0.4,0.5,0.5c0.1,0.1,0.1,0.1,0.2,0.2c0.1,0.1,0.2,0.2,0.4,0.3c0.1,0.1,0.1,0.1,0.2,0.2
	c0.1,0.1,0.2,0.2,0.4,0.3C4.3,13.9,4.4,14,4.5,14c0.1,0.1,0.2,0.1,0.4,0.2c0.1,0,0.2,0.1,0.3,0.1c0.1,0.1,0.3,0.1,0.4,0.2
	c0.1,0,0.2,0.1,0.3,0.1c0.1,0,0.3,0.1,0.4,0.1c0.1,0,0.2,0.1,0.3,0.1c0.2,0,0.3,0.1,0.5,0.1c0.1,0,0.2,0,0.2,0c0.3,0,0.5,0,0.8,0
	s0.5,0,0.8,0c0.1,0,0.2,0,0.2,0c0.2,0,0.3,0,0.5-0.1c0.1,0,0.2,0,0.3-0.1c0.1,0,0.3-0.1,0.4-0.1c0.1,0,0.2-0.1,0.3-0.1
	c0.1-0.1,0.3-0.1,0.4-0.2c0.1,0,0.2-0.1,0.3-0.1c0.1-0.1,0.3-0.1,0.4-0.2c0.1,0,0.2-0.1,0.3-0.2c0.1-0.1,0.2-0.2,0.4-0.3
	c0.1-0.1,0.1-0.1,0.2-0.2c0.1-0.1,0.2-0.2,0.4-0.3c0.1-0.1,0.1-0.1,0.2-0.2C13.1,12.8,13.2,12.6,13.4,12.5
	C13.4,12.5,13.4,12.5,13.4,12.5L13.4,12.5z M11.6,12.8c-0.2,0.2-0.4,0.3-0.6,0.4c0,0-0.1,0.1-0.1,0.1c-0.1,0.1-0.2,0.1-0.3,0.2
	c0.2-0.3,0.4-0.6,0.6-1c0.2,0.1,0.4,0.1,0.7,0.2C11.7,12.7,11.7,12.7,11.6,12.8z M5,13.2c-0.2-0.1-0.4-0.3-0.6-0.4
	c0,0-0.1,0-0.1-0.1c0.2-0.1,0.4-0.2,0.7-0.2c0.2,0.4,0.4,0.7,0.6,1c-0.1-0.1-0.2-0.1-0.3-0.2C5.1,13.2,5,13.2,5,13.2z M4.4,3.2
	C4.6,3.1,4.8,2.9,5,2.8c0,0,0.1-0.1,0.1-0.1c0.1-0.1,0.2-0.1,0.3-0.2c-0.2,0.3-0.4,0.6-0.6,1C4.7,3.5,4.5,3.4,4.3,3.3
	C4.3,3.3,4.3,3.3,4.4,3.2z M11,2.8c0.2,0.1,0.4,0.3,0.6,0.4c0,0,0.1,0.1,0.1,0.1c-0.2,0.1-0.4,0.2-0.7,0.2c-0.2-0.4-0.4-0.7-0.6-1
	c0.1,0.1,0.2,0.1,0.3,0.2C10.9,2.8,11,2.8,11,2.8z M8.5,12c0.5,0,1.1,0.1,1.6,0.2c-0.4,0.9-1,1.5-1.6,1.7V12z M8.5,11V8.5H11
	c0,1-0.2,2-0.5,2.8C9.9,11.1,9.2,11,8.5,11z M8.5,7.5V5c0.7,0,1.4-0.1,2-0.2c0.3,0.8,0.5,1.7,0.5,2.8H8.5z M8.5,4V2.1
	c0.6,0.2,1.1,0.8,1.6,1.7C9.6,3.9,9,4,8.5,4z M7.5,2.1V4C7,4,6.4,3.9,5.9,3.8C6.4,2.9,6.9,2.3,7.5,2.1z M7.5,5v2.5H5
	c0-1,0.2-2,0.5-2.8C6.1,4.9,6.8,5,7.5,5z M7.5,8.5V11c-0.7,0-1.4,0.1-2,0.2C5.2,10.5,5.1,9.5,5,8.5H7.5z M7.5,12v1.9
	c-0.6-0.2-1.1-0.8-1.6-1.7C6.4,12.1,7,12,7.5,12z M11.5,11.5c0.3-0.9,0.5-1.9,0.5-3h2c-0.1,1.3-0.6,2.5-1.5,3.4
	C12.2,11.8,11.8,11.6,11.5,11.5z M14,7.5h-2c0-1.1-0.2-2.1-0.5-3c0.4-0.1,0.7-0.3,1.1-0.4C13.3,5,13.9,6.2,14,7.5z M4.5,4.5
	C4.2,5.4,4.1,6.4,4,7.5H2C2.1,6.2,2.7,5,3.5,4.1C3.8,4.2,4.2,4.4,4.5,4.5z M2,8.5h2c0,1.1,0.2,2.1,0.5,3c-0.4,0.1-0.7,0.3-1.1,0.4
	C2.7,11,2.1,9.8,2,8.5z"/>
</svg>
