<?xml version="1.0" encoding="utf-8"?>
<svg version="1.1" id="Layer_1" xmlns="http://www.w3.org/2000/svg" xmlns:xlink="http://www.w3.org/1999/xlink" x="0px" y="0px"
	 viewBox="-47 170.9 500 500" style="enable-background:new -47 170.9 500 500;" xml:space="preserve">
<path d="M71.3,298.5c-9.7,136.7,117.3,263.7,254,254l9.9-58.7l-68.3-19.6c-14.5-4.8-34,14.7-34,14.7c-39.1-9.7-87.9-58.4-97.8-97.8
	c0,0,19.6-19.6,14.7-34l-19.6-68.3L71.3,298.5z M203,670.9c-137.9,0-250-112.2-250-250c0-137.8,112.2-250,250-250
	c137.8,0,250,112.2,250,250C453,558.7,340.8,670.9,203,670.9z M203,203.9c-119.6,0-217,97.3-217,216.9s97.3,217,217,217
	s216.9-97.3,216.9-217S322.6,203.9,203,203.9z"/>
</svg>
