<?xml version="1.0" encoding="utf-8"?>
<!-- Generator: Adobe Illustrator 19.2.0, SVG Export Plug-In . SVG Version: 6.00 Build 0)  -->
<svg version="1.1" id="Layer_1" xmlns="http://www.w3.org/2000/svg" xmlns:xlink="http://www.w3.org/1999/xlink" x="0px" y="0px"
	 viewBox="0 0 16 16" style="enable-background:new 0 0 16 16;" xml:space="preserve">
<path d="M8,12c-2.8,0-5.3-1.4-6.8-3.7c-0.1-0.2-0.1-0.4,0-0.5C2.7,5.4,5.2,4,8,4c2.8,0,5.3,1.4,6.8,3.7c0.1,0.2,0.1,0.4,0,0.5
	C13.3,10.6,10.8,12,8,12z M2.3,8c1.3,1.9,3.4,3,5.7,3s4.4-1.1,5.7-3C12.4,6.1,10.3,5,8,5S3.6,6.1,2.3,8z M8,10.5
	c-1.4,0-2.5-1.1-2.5-2.5c0-1.4,1.1-2.5,2.5-2.5c1.4,0,2.5,1.1,2.5,2.5C10.5,9.4,9.4,10.5,8,10.5z M8,6.5C7.2,6.5,6.5,7.2,6.5,8
	S7.2,9.5,8,9.5S9.5,8.8,9.5,8S8.8,6.5,8,6.5z"/>
</svg>
