<?xml version="1.0" encoding="utf-8"?>
<!-- Generator: Adobe Illustrator 19.0.0, SVG Export Plug-In . SVG Version: 6.00 Build 0)  -->
<svg version="1.1" baseProfile="tiny" id="Layer_1" xmlns="http://www.w3.org/2000/svg" xmlns:xlink="http://www.w3.org/1999/xlink"
	 x="0px" y="0px" width="500px" height="500px" viewBox="-47 170.9 500 500" xml:space="preserve">
<path d="M332.6,493.4c-21.8-22.7-26.6-56.2-31.2-88.8c-6.8-48.1-14.5-102.2-83.1-109.2v-8.7c0-8.7-7.1-15.8-15.8-15.8
	s-15.8,7.1-15.8,15.8v8.7c-68,7.1-75.6,61.2-82.4,109.2c-4.6,32.5-9.3,66-30.9,88.8c-4.4,4.6-5.6,11.3-3.1,17.1s8.2,9.6,14.6,9.6
	h66.3c0.4,28.1,23.3,50.8,51.4,50.8s51.1-22.7,51.5-50.8h67.3c6.3,0,12.1-3.8,14.6-9.6C338.2,504.8,337,498,332.6,493.4z
	 M202.5,539.3c-10.7,0-19.4-8.5-19.7-19.1h19.7h19.7C221.9,530.8,213.2,539.3,202.5,539.3z M202.5,488.6h-87.6
	c12.9-25.1,16.9-53.5,20.5-79.4c7.9-55.9,14-82.9,66.9-82.9c53.5,0.1,59.7,27,67.7,82.9c3.7,25.9,7.7,54.3,20.7,79.5L202.5,488.6
	L202.5,488.6z"/>
</svg>
