<?xml version="1.0" encoding="utf-8"?>
<svg version="1.1" id="Layer_1" xmlns="http://www.w3.org/2000/svg" xmlns:xlink="http://www.w3.org/1999/xlink" x="0px" y="0px"
	 viewBox="-47 170.9 500 500" style="enable-background:new -47 170.9 500 500;" xml:space="preserve">
<path d="M273.7,469.9h-20.2v-40.4h20.2V469.9z M152.5,429.4h-20.2v40.4h20.2V429.4z M334.3,550.7v20.2H71.7v-20.2h20.2V389h40.4
	v-51.5h40.4v-44h20.2v-22.6h20.2v22.6h20.2v44h40.4V389h40.4v161.7H334.3z M233.3,389h20.2v-27.3h-20.2V389z M192.9,337.5h20.2
	v-23.8h-20.2V337.5z M192.9,389h20.2v-27.3h-20.2V389z M152.5,389h20.2v-27.3h-20.2V389z M172.7,510.3h-20.2v40.4h20.2V510.3z
	 M253.5,510.3h-20.2v40.4h20.2V510.3z M293.9,409.2H112.1v141.4h20.2v-60.6h60.6v60.6h20.2v-60.6h60.6v60.6h20.2V409.2z
	 M233.3,429.4h-20.2v40.4h20.2V429.4z M192.9,429.4h-20.2v40.4h20.2V429.4z"/>
</svg>
