<?xml version="1.0" encoding="utf-8"?>
<!-- Generator: Adobe Illustrator 19.0.0, SVG Export Plug-In . SVG Version: 6.00 Build 0)  -->
<svg version="1.1" id="Layer_1" xmlns="http://www.w3.org/2000/svg" xmlns:xlink="http://www.w3.org/1999/xlink" x="0px" y="0px"
	 width="500px" height="500px" viewBox="0 0 500 500" style="enable-background:new 0 0 500 500;" xml:space="preserve">
<path d="M300,250c0,27.6-22.4,50-50,50s-50-22.4-50-50s22.4-50,50-50S300,222.4,300,250z M400,262h-25.6
	c-5.7,59.5-53,106.8-112.4,112.4V400h-24v-25.6c-59.5-5.7-106.8-53-112.4-112.4H100v-24h25.6c5.7-59.5,53-106.8,112.4-112.4V100h24
	v25.6c59.5,5.7,106.8,53,112.4,112.4H400V262z M349.3,262c0.1-0.9,0.2-1.9,0.3-2.8c0-0.1,0-0.2,0-0.3c0.1-0.8,0.1-1.6,0.2-2.5
	c0-0.2,0-0.4,0-0.6c0-0.8,0.1-1.5,0.1-2.3c0-0.2,0-0.4,0-0.7c0-1,0-1.9,0-2.9s0-1.9,0-2.9c0-0.2,0-0.4,0-0.7c0-0.8-0.1-1.5-0.1-2.3
	c0-0.2,0-0.4,0-0.6c-0.1-0.8-0.1-1.6-0.2-2.5c0-0.1,0-0.2,0-0.3c-0.1-0.9-0.2-1.9-0.3-2.8c-5.5-45.6-41.6-81.8-87.3-87.3
	c-0.9-0.1-1.9-0.2-2.8-0.3c-0.1,0-0.2,0-0.3,0c-0.8-0.1-1.6-0.1-2.5-0.2c-0.2,0-0.4,0-0.6,0c-0.8,0-1.5-0.1-2.3-0.1
	c-0.2,0-0.4,0-0.7,0c-1,0-1.9,0-2.9,0s-1.9,0-2.9,0c-0.2,0-0.4,0-0.7,0c-0.8,0-1.5,0.1-2.3,0.1c-0.2,0-0.4,0-0.6,0
	c-0.8,0.1-1.6,0.1-2.5,0.2c-0.1,0-0.2,0-0.3,0c-0.9,0.1-1.9,0.2-2.8,0.3c-45.6,5.5-81.8,41.6-87.3,87.3c-0.1,0.9-0.2,1.9-0.3,2.8
	c0,0.1,0,0.2,0,0.3c-0.1,0.8-0.1,1.6-0.2,2.5c0,0.2,0,0.4,0,0.6c0,0.8-0.1,1.5-0.1,2.3c0,0.2,0,0.4,0,0.7c0,1,0,1.9,0,2.9
	s0,1.9,0,2.9c0,0.2,0,0.4,0,0.7c0,0.8,0.1,1.5,0.1,2.3c0,0.2,0,0.4,0,0.6c0.1,0.8,0.1,1.6,0.2,2.5c0,0.1,0,0.2,0,0.3
	c0.1,0.9,0.2,1.9,0.3,2.8c5.5,45.6,41.6,81.8,87.3,87.3c0.9,0.1,1.9,0.2,2.8,0.3c0.1,0,0.2,0,0.3,0c0.8,0.1,1.6,0.1,2.5,0.2
	c0.2,0,0.4,0,0.6,0c0.8,0,1.5,0.1,2.3,0.1c0.2,0,0.4,0,0.7,0c1,0,1.9,0,2.9,0s1.9,0,2.9,0c0.2,0,0.4,0,0.7,0c0.8,0,1.5-0.1,2.3-0.1
	c0.2,0,0.4,0,0.6,0c0.8-0.1,1.6-0.1,2.5-0.2c0.1,0,0.2,0,0.3,0c0.9-0.1,1.9-0.2,2.8-0.3C307.6,343.8,343.8,307.6,349.3,262z"/>
</svg>
