<?xml version="1.0" encoding="utf-8"?>
<!-- Generator: Adobe Illustrator 19.0.0, SVG Export Plug-In . SVG Version: 6.00 Build 0)  -->
<svg version="1.1" id="Layer_1" xmlns="http://www.w3.org/2000/svg" xmlns:xlink="http://www.w3.org/1999/xlink" x="0px" y="0px"
	 viewBox="-345 170.9 500 500" style="enable-background:new -345 170.9 500 500;" xml:space="preserve">
<path d="M-95,572.9c-1.7,0-3.1-0.3-4.5-0.8c-0.5-0.2-1.3-0.5-2-1l-126.9-67.8l-0.2-0.1c-3.6-2.1-5.8-5.7-6.2-9.8l-11.8-165
	c-0.5-2.6-0.2-5.3,1-7.9l0.1-0.2c0.9-1.8,2.2-3.3,3.8-4.5l0.4-0.3l0.2-0.1l0.1-0.1c0.9-0.6,1.8-1,2.4-1.3l0.2-0.1l140.1-44.7
	l0.6-0.1c0.6-0.1,1.6-0.4,2.7-0.4c1.4,0,2.7,0.2,3.9,0.7l138.9,44.2c0.5,0.1,1.3,0.4,2.2,0.8c0.3,0.2,0.6,0.3,0.8,0.5l0.1,0.1
	c4,2.4,6.2,6.6,6,11.2L45.2,493c-0.2,4.1-2.6,7.8-6.3,10l-0.2,0.1l-127.9,68.4l-0.2,0.1C-91.3,572.4-93.2,572.9-95,572.9z
	 M-107.5,539.8v-138l-36.1-17.7l0.6,52.9l-41.2-22.2l-3.1-52l-33.6-16.4l9.8,138L-107.5,539.8z M-82.7,539.7l103.3-55.3l9.8-138
	l-113.1,55.3V539.7z M-95,380.2l106.3-52l-34.3-11l-104.5,47.1L-95,380.2z M-171.7,342.7l102.4-40.2l-25.9-8.2l-106.3,33.8
	L-171.7,342.7z"/>
</svg>
