<?xml version="1.0" encoding="utf-8"?>
<svg version="1.1" id="Layer_1" xmlns="http://www.w3.org/2000/svg" xmlns:xlink="http://www.w3.org/1999/xlink" x="0px" y="0px"
	 viewBox="-47 170.9 500 500" style="enable-background:new -47 170.9 500 500;" xml:space="preserve">
<path d="M203.8,620.6c-49.9,0-98.4-19-134.7-52.6l19.2-19.2c31.9,28,73.5,44,115.5,44c94.8,0,172-77.2,172-172
	c0-94.8-77.2-172-172-172c-82.4,0-153.5,57.5-169.3,136.7l-2.6,12.9l43.5-6.4l-53.7,75.1L-31.5,392l36.6,5.3l1.4-9.1
	c15-96.8,98-167.1,197.3-167.1c110.1,0,199.7,89.6,199.7,199.7C403.5,531,313.9,620.6,203.8,620.6z M189.3,472.3l18.8-50.8l87-34.8
	c8.5-4,7.8-11.7,7.1-14.8c-1.3-5.9-6.1-11.9-12.6-11.9c-1.8,0-3.6,0.4-5.7,1.3L189,400.6c-1.3,0.5-3.3,1.8-5.5,6.7l-19.9,55.4
	c-1.5,4.1-1,7.9,1.4,11.4c3,4.3,8.4,7.1,13.5,7.1C183.6,481.2,187.2,478.3,189.3,472.3z"/>
</svg>
