<?xml version="1.0" encoding="utf-8"?>
<!-- Generator: Adobe Illustrator 19.2.0, SVG Export Plug-In . SVG Version: 6.00 Build 0)  -->
<svg version="1.1" id="Layer_1" xmlns="http://www.w3.org/2000/svg" xmlns:xlink="http://www.w3.org/1999/xlink" x="0px" y="0px"
	 viewBox="0 0 16 16" style="enable-background:new 0 0 16 16;" xml:space="preserve">
<path d="M8,14.8c-0.1,0-0.2,0-0.3-0.1c-0.2-0.1-0.3-0.4-0.2-0.6l0.8-2.3H2.4c-0.8,0-1.4-0.6-1.4-1.4V3.6c0-0.8,0.6-1.4,1.4-1.4h11.1
	c0.8,0,1.4,0.6,1.4,1.4v6.7c0,0.8-0.6,1.4-1.4,1.4h-1.4l-3.9,2.9C8.2,14.7,8.1,14.8,8,14.8z M2.4,3.2C2.2,3.2,2,3.4,2,3.6v6.7
	c0,0.2,0.2,0.4,0.4,0.4H9c0.2,0,0.3,0.1,0.4,0.2c0.1,0.1,0.1,0.3,0.1,0.5L9,12.9l2.7-2c0.1-0.1,0.2-0.1,0.3-0.1h1.6
	c0.2,0,0.4-0.2,0.4-0.4V3.6c0-0.2-0.2-0.4-0.4-0.4H2.4z M8.5,5.8L8.5,5.8c0-0.3-0.2-0.5-0.5-0.5H4c-0.3,0-0.5,0.2-0.5,0.5v0
	C3.5,6,3.7,6.2,4,6.2h4C8.3,6.2,8.5,6,8.5,5.8z M12.5,8.3L12.5,8.3c0-0.3-0.2-0.5-0.5-0.5H4C3.7,7.8,3.5,8,3.5,8.2v0
	c0,0.3,0.2,0.5,0.5,0.5h8C12.3,8.8,12.5,8.5,12.5,8.3z"/>
</svg>
