<?xml version="1.0" encoding="utf-8"?>
<!-- Generator: Adobe Illustrator 19.0.0, SVG Export Plug-In . SVG Version: 6.00 Build 0)  -->
<svg version="1.1" id="Layer_1" xmlns="http://www.w3.org/2000/svg" xmlns:xlink="http://www.w3.org/1999/xlink" x="0px" y="0px"
	 width="500px" height="500px" viewBox="0 0 500 500" style="enable-background:new 0 0 500 500;" xml:space="preserve">
<path d="M319.2,382.8c-73.3,0-132.9-59.6-132.9-132.9c0-42.3,20.4-82.5,54.6-107.3c1.5-1.1,3.3-1.7,5.3-1.7c2.8,0,5.5,1.4,7.2,3.7
	c1.4,1.9,2,4.3,1.6,6.7c-0.4,2.4-1.7,4.4-3.6,5.8c-29.5,21.6-47.2,56.3-47.2,92.9c0,63.4,51.5,114.9,114.9,114.9
	S434.2,313.4,434.2,250c0-59-46-109.3-104.8-114.4l-1.2-0.1v42.3c0,5-4,9-9,9s-9-4-9-9v-51.7c0-5,4-9,9-9
	c73.2,0,132.8,59.6,132.8,132.8c0,35.4-13.7,68.8-38.8,93.9C388,369,354.7,382.8,319.2,382.8z M73.5,324.2c-4.3,0-7.8-3.5-7.8-7.8
	s3.5-7.8,7.8-7.8h93.2c4.3,0,7.8,3.5,7.8,7.8s-3.5,7.8-7.8,7.8H73.5z M55.9,277c-4.3,0-7.8-3.5-7.8-7.8s3.5-7.8,7.8-7.8H149
	c4.3,0,7.8,3.5,7.8,7.8s-3.5,7.8-7.8,7.8H55.9z M316.7,258.9c-1.5,0-3-0.4-4.4-1.1L255.9,225c-2.1-1.2-3.5-3.1-4.1-5.4
	c-0.6-2.3-0.3-4.7,0.9-6.8c1.5-2.8,4.5-4.5,7.7-4.5c1.4,0,2.9,0.4,4.5,1.2l56.3,32.8c4.2,2.4,5.7,7.9,3.2,12.2
	c-1.7,2.7-4.6,4.4-7.5,4.4C317,259,316.7,258.9,316.7,258.9z M55.9,229.8c-4.3,0-7.8-3.5-7.8-7.8c0-4.3,3.5-7.8,7.8-7.8H149
	c4.3,0,7.8,3.5,7.8,7.8c0,4.3-3.5,7.8-7.8,7.8H55.9z M73.5,182.5c-4.3,0-7.8-3.5-7.8-7.8c0-4.3,3.5-7.8,7.8-7.8h93.2
	c4.3,0,7.8,3.5,7.8,7.8c0,4.3-3.5,7.8-7.8,7.8H73.5z"/>
</svg>
