<?xml version="1.0" encoding="utf-8"?>
<!-- Generator: Adobe Illustrator 19.2.0, SVG Export Plug-In . SVG Version: 6.00 Build 0)  -->
<svg version="1.1" id="Layer_1" xmlns="http://www.w3.org/2000/svg" xmlns:xlink="http://www.w3.org/1999/xlink" x="0px" y="0px"
	 viewBox="0 0 16 16" style="enable-background:new 0 0 16 16;" xml:space="preserve">
<path d="M10,2c0,1.1-0.9,2-2,2S6,3.1,6,2s0.9-2,2-2S10,0.9,10,2z M8,6C6.9,6,6,6.9,6,8s0.9,2,2,2s2-0.9,2-2S9.1,6,8,6z M8,12
	c-1.1,0-2,0.9-2,2s0.9,2,2,2s2-0.9,2-2S9.1,12,8,12z"/>
</svg>
