<?xml version="1.0" encoding="utf-8"?>
<!-- Generator: Adobe Illustrator 19.2.0, SVG Export Plug-In . SVG Version: 6.00 Build 0)  -->
<svg version="1.1" id="Layer_1" xmlns="http://www.w3.org/2000/svg" xmlns:xlink="http://www.w3.org/1999/xlink" x="0px" y="0px"
	 viewBox="0 0 16 16" style="enable-background:new 0 0 16 16;" xml:space="preserve">
<path d="M9.5,3.5C9.5,4.3,8.8,5,8,5S6.5,4.3,6.5,3.5S7.2,2,8,2C8.8,2,9.5,2.7,9.5,3.5z M8,6.5C7.2,6.5,6.5,7.2,6.5,8
	c0,0.8,0.7,1.5,1.5,1.5c0.8,0,1.5-0.7,1.5-1.5S8.8,6.5,8,6.5z M8,11c-0.8,0-1.5,0.7-1.5,1.5S7.2,14,8,14c0.8,0,1.5-0.7,1.5-1.5
	S8.8,11,8,11z"/>
</svg>
