<?xml version="1.0" encoding="utf-8"?>
<!-- Generator: Adobe Illustrator 19.0.0, SVG Export Plug-In . SVG Version: 6.00 Build 0)  -->
<svg version="1.1" id="Layer_1" xmlns="http://www.w3.org/2000/svg" xmlns:xlink="http://www.w3.org/1999/xlink" x="0px" y="0px"
	 viewBox="-55 147 500 500" style="enable-background:new -55 147 500 500;" xml:space="preserve">
<path d="M418.5,397l-78.6,78.5L328.4,464l59-58.9H203.1v184.3l58.9-59l11.5,11.5L195,620.5l-78.5-78.6l11.5-11.5l58.9,59V405.1H2.6
	l59,58.9l-11.5,11.5L-28.5,397l78.6-78.5L61.6,330l-59,58.9h184.3V204.6l-58.9,59l-11.5-11.5l78.5-78.6l78.5,78.6L262,263.6
	l-58.9-59v184.3h184.3l-59-58.9l11.5-11.5L418.5,397z"/>
</svg>
