<?xml version="1.0" encoding="utf-8"?>
<svg version="1.1" id="Layer_1" xmlns="http://www.w3.org/2000/svg" xmlns:xlink="http://www.w3.org/1999/xlink" x="0px" y="0px"
	 viewBox="-47 170.9 500 500" style="enable-background:new -47 170.9 500 500;" xml:space="preserve">
<path id="XMLID_67_" d="M100.1,511.5V392.6L148,365l14,14l-33.2,19.2L203,441l74.2-42.8L244,379l14-14l47.9,27.7v118.8L203,570.9
	L100.1,511.5z M212.6,457.6v85.7l74.2-42.8v-85.7L212.6,457.6z M119.2,500.4l74.2,42.8v-85.7l-74.2-42.8V500.4z M147.4,350.6
	L161,337l32.5,32.5v-89l9.6-9.6l9.6,9.6v89L245,337l13.5,13.5L203,406.1L147.4,350.6z"/>
</svg>
