<?xml version="1.0" encoding="utf-8"?>
<!-- Generator: Adobe Illustrator 19.0.0, SVG Export Plug-In . SVG Version: 6.00 Build 0)  -->
<svg version="1.1" id="Layer_1" xmlns="http://www.w3.org/2000/svg" xmlns:xlink="http://www.w3.org/1999/xlink" x="0px" y="0px"
	 width="500px" height="500px" viewBox="0 0 500 500" style="enable-background:new 0 0 500 500;" xml:space="preserve">
<path d="M499.7,250c0,138.1-111.9,250-250,250s-250-111.9-250-250S111.6,0,249.7,0S499.7,111.9,499.7,250z M207.7,169.1l32.5-32.5
	v89l9.6,9.6l9.6-9.6v-89l32.3,32.5l13.5-13.5L249.7,100l-55.6,55.5L207.7,169.1z M352.6,221.8l-81.2-47l0,22.1l52.5,30.4l-74.2,42.8
	l-74.2-42.8l52.6-30.4l0-22l-81.3,46.9v118.9L249.7,400l102.9-59.4V221.8z M259.3,286.7l74.2-42.8v85.7l-74.2,42.8V286.7
	L259.3,286.7z M165.9,329.5l74.2,42.8v-85.7l-74.2-42.8V329.5z"/>
</svg>
