<svg enable-background="new 0 0 500 500" viewBox="0 0 500 500" xmlns="http://www.w3.org/2000/svg"><path d="m246.875 156.25c-6.25 0-12.5 6.25-12.5 12.5l-28.125 168.75v6.25h6.25 168.75c6.25 0 12.5-6.25 15.625-12.5l28.125-168.75c0-3.125 0-3.125 0-6.25-6.25 0-9.375 0-9.375 0zm120.156 68.344c-4.031 0-7.312-1.094-9.875-4.031-6.781-7.312-13.687-12.25-27.219-12.25-23.375 0-45.125 22.281-45.125 49.5 0 18.438 12.969 30.875 31.25 30.875 10.594 0 15.531-2.75 24.125-8.219 2.531-1.656 6.031-3.281 9.5-3.281 7.312 0 12.781 6.031 12.781 13.344 0 4.562-2.187 8.063-4.938 10.406-9.656 8.188-25.375 13.688-41.625 13.688-34.906 0-60.281-21.562-60.281-55.719 0-40.75 34.719-76.531 77.812-76.531 19 0 31.969 6.219 42.188 15.719 2.938 2.75 5.844 6.562 5.844 11.875.001 8.03-6.187 14.624-14.437 14.624z"/><path d="m249.7 0c-138.1 0-250 111.9-250 250s111.9 250 250 250 250-111.9 250-250-111.9-250-250-250zm-202.825 187.5c0-9.375 6.25-15.625 15.625-15.625h103.125c9.375 0 15.625 6.25 15.625 15.625s-6.25 15.625-15.625 15.625h-103.125c-9.375 0-15.625-6.25-15.625-15.625zm100 140.625h-25c-9.375 0-15.625-6.25-15.625-15.625s6.25-15.625 15.625-15.625h25c9.375 0 15.625 6.25 15.625 15.625s-6.25 15.625-15.625 15.625zm9.375-62.5h-71.875c-9.375 0-15.625-6.25-15.625-15.625s6.25-15.625 15.625-15.625h71.875c9.375 0 15.625 6.25 15.625 15.625s-6.25 15.625-15.625 15.625zm268.75 71.875c-3.125 21.875-21.875 37.5-43.75 37.5h-168.75c-12.5 0-21.875-6.25-28.125-12.5-6.25-9.375-9.375-18.75-9.375-31.25l28.125-168.75c3.125-18.75 21.875-37.5 43.75-37.5h168.75c12.5 0 21.875 6.25 28.125 12.5 6.25 9.375 9.375 18.75 9.375 31.25z"/></svg>