<?xml version="1.0" encoding="utf-8"?>
<!-- Generator: Adobe Illustrator 19.0.0, SVG Export Plug-In . SVG Version: 6.00 Build 0)  -->
<svg version="1.1" id="Layer_1" xmlns="http://www.w3.org/2000/svg" xmlns:xlink="http://www.w3.org/1999/xlink" x="0px" y="0px"
	 width="500px" height="500px" viewBox="0 0 500 500" style="enable-background:new 0 0 500 500;" xml:space="preserve">
<path d="M125.5,134.4c-9.1,129.2,110.9,249.3,240.1,240.1L375,319l-64.6-18.5c-13.7-4.6-32.2,13.9-32.2,13.9
	c-37-9.1-83.1-55.2-92.5-92.5c0,0,18.5-18.5,13.9-32.2l-18.5-64.6L125.5,134.4z M343,212.1c-1.7,2.4-3.8,4.6-6.3,6.8
	c-2.5,2.1-5.2,3.9-8.2,5.5c-3,1.6-6.3,2.8-9.8,3.7c-3.5,0.9-7.2,1.4-11,1.4c-6.3,0-12-1.1-17.2-3.2c-5.2-2.1-9.7-5.1-13.5-9
	c-3.8-3.8-6.7-8.4-8.7-13.6c-2.1-5.2-3.1-11-3.1-17.3c0-6.1,1-11.8,3.1-17.2c2.1-5.3,5-10,8.7-13.9c3.8-3.9,8.3-7,13.5-9.3
	c5.2-2.3,11.1-3.4,17.4-3.4c7.7,0,14.4,1.4,20.1,4.2c5.7,2.8,10.5,6.9,14.3,12.2l-12.8,12.3c-2.5-3.5-5.4-6.3-8.8-8.4
	c-3.4-2.1-7.4-3.2-12.2-3.2c-3.7,0-7.1,0.7-10,2c-3,1.4-5.5,3.2-7.6,5.6c-2.1,2.4-3.7,5.2-4.8,8.4c-1.1,3.2-1.7,6.6-1.7,10.1
	c0,3.6,0.6,7,1.7,10.2c1.1,3.1,2.7,5.9,4.8,8.2c2.1,2.3,4.5,4.1,7.4,5.5c2.9,1.3,6.2,2,9.8,2c3,0,5.6-0.3,7.8-0.9
	c2.2-0.6,4.1-1.4,5.8-2.5c1.7-1,3.2-2.2,4.5-3.6c1.3-1.4,2.6-2.7,3.8-4.2L343,212.1z M425.3,212.1c-1.7,2.4-3.8,4.6-6.3,6.8
	c-2.5,2.1-5.2,3.9-8.2,5.5c-3,1.6-6.3,2.8-9.8,3.7c-3.5,0.9-7.2,1.4-11,1.4c-6.3,0-12-1.1-17.2-3.2c-5.2-2.1-9.7-5.1-13.5-9
	c-3.8-3.8-6.7-8.4-8.7-13.6c-2.1-5.2-3.1-11-3.1-17.3c0-6.1,1-11.8,3.1-17.2c2.1-5.3,5-10,8.7-13.9c3.8-3.9,8.3-7,13.5-9.3
	c5.2-2.3,11.1-3.4,17.4-3.4c7.7,0,14.4,1.4,20.1,4.2c5.7,2.8,10.5,6.9,14.3,12.2l-12.8,12.3c-2.5-3.5-5.4-6.3-8.8-8.4
	c-3.4-2.1-7.4-3.2-12.2-3.2c-3.7,0-7.1,0.7-10,2c-3,1.4-5.5,3.2-7.6,5.6c-2.1,2.4-3.7,5.2-4.8,8.4c-1.1,3.2-1.7,6.6-1.7,10.1
	c0,3.6,0.6,7,1.7,10.2c1.1,3.1,2.7,5.9,4.8,8.2c2.1,2.3,4.5,4.1,7.4,5.5c2.9,1.3,6.2,2,9.8,2c3,0,5.6-0.3,7.8-0.9
	c2.2-0.6,4.1-1.4,5.8-2.5c1.7-1,3.2-2.2,4.5-3.6c1.3-1.4,2.6-2.7,3.8-4.2L425.3,212.1z"/>
</svg>
