<?xml version="1.0" encoding="utf-8"?>
<!-- Generator: Adobe Illustrator 19.0.0, SVG Export Plug-In . SVG Version: 6.00 Build 0)  -->
<svg version="1.1" id="Layer_1" xmlns="http://www.w3.org/2000/svg" xmlns:xlink="http://www.w3.org/1999/xlink" x="0px" y="0px"
	 width="500px" height="500px" viewBox="0 0 500 500" style="enable-background:new 0 0 500 500;" xml:space="preserve">
<path d="M159.2,422.7c-5,0-9.2-4.2-9.2-9.2c0-5.1,4.1-9.2,9.2-9.2h181.6c5.1,0,9.2,4.1,9.2,9.2c0,5.1-4.1,9.2-9.2,9.2H159.2z
	 M250,385.2c-3.2,0-6.2-1.7-7.8-4.4c-17.9-29.6-35.5-61-49.7-88.5c-27.8-54.1-42.5-93.8-42.5-114.9c0-55.1,44.9-100,100-100
	c55.1,0,100,44.9,100,100c0,21.1-14.7,60.9-42.5,115c-21.1,41.1-43.4,78.1-49.7,88.5C256.2,383.5,253.2,385.2,250,385.2z M250,95.7
	c-45,0-81.6,36.6-81.6,81.6c0,40.2,66.5,155.2,79.9,177.9c0.4,0.6,1,1,1.8,1c0.7,0,1.4-0.4,1.8-1c8.8-15,31.4-54.2,50.7-94.1
	c19.4-40.2,29.2-68.4,29.2-83.8C331.6,132.3,295,95.7,250,95.7z M250,216.9c-21.7,0-39.4-17.7-39.4-39.4s17.7-39.4,39.4-39.4
	s39.4,17.7,39.4,39.4S271.7,216.9,250,216.9z M250,156.5c-11.6,0-21,9.4-21,21s9.4,21,21,21c11.6,0,21-9.4,21-21
	S261.6,156.5,250,156.5z"/>
</svg>
