<?xml version="1.0" encoding="utf-8"?>
<svg version="1.1" id="Layer_1" xmlns="http://www.w3.org/2000/svg" xmlns:xlink="http://www.w3.org/1999/xlink" x="0px" y="0px"
	 viewBox="0 0 500 500" style="enable-background:new 0 0 500 500;" xml:space="preserve">
<path id="XMLID_99_" d="M249.5,419L249.5,419c-4.8,0-9.2-2.5-11.7-6.6c-11.6-19-113.3-187.2-113.3-250.6
	c0-68.9,56.1-125,125-125s125,56.1,125,125c0,63.5-101.7,231.7-113.3,250.6C258.8,416.5,254.3,419,249.5,419z M249.5,64.3
	c-53.7,0-97.5,43.7-97.5,97.5c0,42,62.3,156.7,97.5,216.6c35.2-59.9,97.5-174.7,97.5-216.6C347,108,303.3,64.3,249.5,64.3z
	 M249.5,212.8c-28,0-50.7-22.8-50.7-50.7s22.8-50.7,50.7-50.7s50.7,22.8,50.7,50.7S277.5,212.8,249.5,212.8z M249.5,138.9
	c-12.8,0-23.2,10.4-23.2,23.2c0,12.8,10.4,23.2,23.2,23.2s23.2-10.4,23.2-23.2C272.7,149.3,262.3,138.9,249.5,138.9z M374.5,451.1
	c0-7.6-6.2-13.8-13.8-13.8H138.3c-7.6,0-13.8,6.2-13.8,13.8s6.2,13.8,13.8,13.8h222.5C368.4,464.9,374.5,458.7,374.5,451.1z"/>
</svg>
