<?xml version="1.0" encoding="utf-8"?>
<!-- Generator: Adobe Illustrator 19.0.0, SVG Export Plug-In . SVG Version: 6.00 Build 0)  -->
<svg version="1.1" id="Layer_1" xmlns="http://www.w3.org/2000/svg" xmlns:xlink="http://www.w3.org/1999/xlink" x="0px" y="0px"
	 width="500px" height="500px" viewBox="0 0 500 500" style="enable-background:new 0 0 500 500;" xml:space="preserve">
<path d="M250,404c-3.2,0-6.2-1.7-7.8-4.4c-4.4-7.2-27.5-45.4-49.7-88.6C164.7,256.8,150,217.1,150,196c0-55.1,44.9-100,100-100
	c55.1,0,100,44.9,100,100c0,21.1-14.7,60.9-42.5,115c-21.1,41.1-43.4,78.1-49.7,88.5C256.2,402.3,253.2,404,250,404z M250,114.4
	c-45,0-81.6,36.6-81.6,81.6c0,40.2,66.5,155.2,79.9,177.9c0.4,0.6,1,1,1.8,1c0.7,0,1.4-0.4,1.8-1c8.8-15,31.5-54.2,50.7-94.1
	c19.4-40.2,29.2-68.4,29.2-83.8C331.6,151,295,114.4,250,114.4z M250,235.6c-21.7,0-39.4-17.7-39.4-39.4c0-21.7,17.7-39.4,39.4-39.4
	s39.4,17.7,39.4,39.4C289.4,217.9,271.7,235.6,250,235.6z M250,175.3c-11.6,0-21,9.4-21,21c0,11.6,9.4,21,21,21c11.6,0,21-9.4,21-21
	C271,184.7,261.6,175.3,250,175.3z"/>
</svg>
