<?xml version="1.0" encoding="utf-8"?>
<!-- Generator: Adobe Illustrator 19.0.0, SVG Export Plug-In . SVG Version: 6.00 Build 0)  -->
<svg version="1.1" id="Layer_1" xmlns="http://www.w3.org/2000/svg" xmlns:xlink="http://www.w3.org/1999/xlink" x="0px" y="0px"
	 viewBox="-345 170.9 500 500" style="enable-background:new -345 170.9 500 500;" xml:space="preserve">
<path d="M-95,170.9c-138.1,0-250,111.9-250,250s111.9,250,250,250s250-111.9,250-250S43.1,170.9-95,170.9z M-95,570.9
	c-37.5,0-73.9-14.3-101.2-39.5l14.4-14.4c24,21,55.2,33,86.7,33c71.2,0,129.2-58,129.2-129.2S-23.8,291.7-95,291.7
	c-61.9,0-115.3,43.2-127.1,102.7l-2,9.7l32.7-4.8l-40.3,56.4l-39.9-56.4l27.5,4l1.1-6.8c11.3-72.7,73.6-125.5,148.2-125.5
	c82.7,0,150,67.3,150,150C55,503.6-12.3,570.9-95,570.9z M-125.2,452.3l14.9-41.6c1.7-3.7,3.2-4.7,4.1-5l71.3-29.5
	c1.6-0.7,2.9-1,4.3-1c4.9,0,8.5,4.5,9.5,8.9c0.5,2.3,1.1,8.1-5.3,11.1l-65.3,26.1l-14.1,38.1c-1.6,4.5-4.3,6.7-8.1,6.7
	c-3.8,0-7.9-2.1-10.1-5.3C-125.9,458.2-126.3,455.4-125.2,452.3z"/>
</svg>
