<?xml version="1.0" encoding="utf-8"?>
<!-- Generator: Adobe Illustrator 19.0.0, SVG Export Plug-In . SVG Version: 6.00 Build 0)  -->
<svg version="1.1" id="Layer_1" xmlns="http://www.w3.org/2000/svg" xmlns:xlink="http://www.w3.org/1999/xlink" x="0px" y="0px"
	 viewBox="-149 151 500 500" style="enable-background:new -149 151 500 500;" xml:space="preserve">
<path d="M114.2,551c-37.5,0-73.9-14.3-101.2-39.5L27.4,497c24,21,55.2,33,86.7,33c71.2,0,129.2-58,129.2-129.2
	s-57.9-129.1-129.1-129.1c-61.9,0-115.3,43.2-127.1,102.7l-2,9.7l32.7-4.8l-40.3,56.4l-39.9-56.4l27.5,4l1.1-6.8
	C-22.5,303.8,39.8,251,114.4,251c82.7,0,150,67.3,150,150C264.2,483.6,196.9,551,114.2,551z M84,432.3l14.9-41.6
	c1.7-3.7,3.2-4.7,4.1-5l71.3-29.5c1.6-0.7,2.9-1,4.3-1c4.9,0,8.5,4.5,9.5,8.9c0.5,2.3,1.1,8.1-5.3,11.1l-65.3,26.1l-14.1,38.1
	c-1.6,4.5-4.3,6.7-8.1,6.7c-3.8,0-7.9-2.1-10.1-5.3C83.3,438.2,82.9,435.4,84,432.3z"/>
</svg>
