<?xml version="1.0" encoding="utf-8"?>
<svg version="1.1" id="Layer_1" xmlns="http://www.w3.org/2000/svg" xmlns:xlink="http://www.w3.org/1999/xlink" x="0px" y="0px"
	 viewBox="-47 170.9 500 500" style="enable-background:new -47 170.9 500 500;" xml:space="preserve">
<path id="XMLID_113_" d="M203,545.9c-1.4,0-2.6-0.5-3-0.7c-0.9-0.3-102.2-40.4-102.2-130.6v-77.9c0-2.4,0.9-4.5,2.6-5.9
	c1.5-1.5,3.6-2.4,5.7-2.4c5.2,0,51.5-0.9,92.2-30.9c1.4-1.1,3.1-1.6,4.9-1.6c1.8,0,3.5,0.6,4.9,1.6c40.4,30,86.5,30.8,91.6,30.8
	c2.6,0,4.9,1,6.2,2.6c1.5,1.5,2.4,3.6,2.4,5.7v78.2c0,90.3-101.3,130.3-102.3,130.7l-1.2,0.2C204.2,545.8,203.6,545.9,203,545.9z
	 M114,414.5c0,69.8,73,106.8,89,114.1c16-7.3,89-44.3,89-114.1v-70c-15.9-1.1-53.8-6.1-89-30.1c-35.2,24-73.1,29.1-89,30.1V414.5z"
	/>
</svg>
