<?xml version="1.0" encoding="utf-8"?>
<svg version="1.1" id="Layer_1" xmlns="http://www.w3.org/2000/svg" xmlns:xlink="http://www.w3.org/1999/xlink" x="0px" y="0px"
	 viewBox="-47 170.9 500 500" style="enable-background:new -47 170.9 500 500;" xml:space="preserve">
<path d="M304.6,374.1c0-0.8-0.2-1.5-0.4-2.3c-0.1-0.3-0.2-0.5-0.3-0.8c-0.4-0.9-1-1.8-1.7-2.6l-69.8-69.8c-0.7-0.8-1.6-1.3-2.6-1.7
	c-0.3-0.1-0.5-0.2-0.8-0.3c-0.7-0.3-1.5-0.4-2.3-0.5c-0.2,0-0.4-0.1-0.5-0.1H109.9c-4.8,0-8.7,3.9-8.7,8.7v232.6
	c0,4.8,3.9,8.7,8.7,8.7h186c4.8,0,8.7-3.9,8.7-8.7V374.6C304.7,374.5,304.6,374.3,304.6,374.1z M234.9,325.9l40,40h-40V325.9z
	 M287.3,528.7H118.7V313.6h98.8v61c0,4.8,3.9,8.7,8.7,8.7h61V528.7z M156.7,415.3h92.4c3.2,0,5.8,2.6,5.8,5.8s-2.6,5.8-5.8,5.8
	h-92.4c-3.2,0-5.8-2.6-5.8-5.8S153.5,415.3,156.7,415.3z M255,490.2c0,3.2-2.6,5.8-5.8,5.8h-92.4c-3.2,0-5.8-2.6-5.8-5.8
	c0-3.2,2.6-5.8,5.8-5.8h92.4C252.4,484.4,255,487,255,490.2z M255,455.7c0,3.2-2.6,5.8-5.8,5.8h-92.4c-3.2,0-5.8-2.6-5.8-5.8
	c0-3.2,2.6-5.8,5.8-5.8h92.4C252.4,449.9,255,452.5,255,455.7z"/>
</svg>
