<?xml version="1.0" encoding="utf-8"?>
<svg version="1.1" id="Layer_1" xmlns="http://www.w3.org/2000/svg" xmlns:xlink="http://www.w3.org/1999/xlink" x="0px" y="0px"
	 viewBox="-47 170.9 500 500" style="enable-background:new -47 170.9 500 500;" xml:space="preserve">
<path d="M299.5,326h-53c-5.1,0-9.3,4.1-9.3,9.3s4.1,9.3,9.3,9.3h43.7v182.8h-7.1c0-0.3,0-0.6,0-0.9c0-32-19.3-57.4-48.9-67.8
	c7.5-7.8,12.1-18.4,12.1-30c0-23.9-19.5-43.4-43.4-43.4c-23.9,0-43.4,19.5-43.4,43.4c0,11.7,4.6,22.2,12.1,30
	c-29.6,10.4-48.9,35.8-48.9,67.8c0,0.3,0,0.6,0,0.9h-7.1V344.5h54.3c5.1,0,9.3-4.1,9.3-9.3s-4.1-9.3-9.3-9.3h-63.6
	c-5.1,0-9.3,4.1-9.3,9.3v201.4c0,5.1,4.1,9.3,9.3,9.3h193c5.1,0,9.3-4.1,9.3-9.3V335.3C308.8,330.1,304.6,326,299.5,326z
	 M178.1,428.6c0-13.7,11.2-24.9,24.9-24.9c13.7,0,24.9,11.2,24.9,24.9s-11.2,24.9-24.9,24.9C189.3,453.5,178.1,442.3,178.1,428.6z
	 M141.3,526.5c0-32,25.4-54.4,61.7-54.4c36.3,0,61.7,22.4,61.7,54.4c0,0.3,0,0.6,0,0.9H141.3C141.3,527.1,141.3,526.8,141.3,526.5z
	 M193.7,344.2v-39c0-5.1,4.1-9.3,9.3-9.3s9.3,4.1,9.3,9.3v39c0,5.1-4.1,9.3-9.3,9.3S193.7,349.3,193.7,344.2z"/>
</svg>
