<?xml version="1.0" encoding="utf-8"?>
<svg version="1.1" id="Layer_1" xmlns="http://www.w3.org/2000/svg" xmlns:xlink="http://www.w3.org/1999/xlink" x="0px" y="0px"
	 viewBox="0 0 500 500" style="enable-background:new 0 0 500 500;" xml:space="preserve">
<path d="M373.8,104.7H126.2L85,393.5h330L373.8,104.7z M320.9,184.9c-5.9,48.8-34.9,84.8-70.9,84.8s-65-36.1-70.9-84.8
	c-6.8-3.4-11.6-10.2-11.6-18.3c0-11.4,9.2-20.6,20.6-20.6s20.6,9.2,20.6,20.6c0,7-3.8,13-9.2,16.7c5,37,26.1,65.8,50.4,65.8
	c24.4,0,45.4-28.8,50.4-65.8c-5.4-3.7-9.2-9.6-9.2-16.7c0-11.4,9.2-20.6,20.6-20.6s20.6,9.2,20.6,20.6
	C332.5,174.7,327.7,181.5,320.9,184.9z"/>
</svg>
