<?xml version="1.0" encoding="utf-8"?>
<!-- Generator: Adobe Illustrator 19.0.0, SVG Export Plug-In . SVG Version: 6.00 Build 0)  -->
<svg version="1.1" id="Layer_1" xmlns="http://www.w3.org/2000/svg" xmlns:xlink="http://www.w3.org/1999/xlink" x="0px" y="0px"
	 viewBox="-345 170.9 500 500" style="enable-background:new -345 170.9 500 500;" xml:space="preserve">
<path d="M56.2,408.2l4,7l0.8,0.4h0.8c1.8-0.5,4.4-1.4,7-3.6l4,4l6.2-6.2l-4.4-4.4c3-5.3,2.6-11.4-1.4-15.4c-0.4-0.5-1.4-0.9-1.8-1.4
	l4.4-6.2l22,21.1L8.3,470.9L56.2,408.2z M66.8,399.6c0-0.8-0.4-1.4-0.4-1.4c-0.4-0.4-0.8-0.4-1.4-0.4s-0.9,0-0.9,0l-7,9.2l1.4-0.4
	c1.8-0.4,4-1.4,6.6-4C66.4,401.3,66.8,400.5,66.8,399.6z M-95,170.9c-83.4,0-157.2,40.8-202.6,103.5c0.8-1.1,1.6-2.3,2.5-3.4
	l62.4,33.1c5.3-0.4,41.8-2.6,73-2.6c20.2,0,33.9,0.8,40,3c11.9,3.6,34.7,17.6,52.3,29.1l33.5-40.5l39.6,20.7l8.8-5.7l23.3,22.4
	l56.7,29.5l-11,14.5l31.3,30.3l-128.4,96.3l-88.4,115.2l-34.7-23.7l-7.9,6.2l-19.3-25.5l-64.2-44.9l15.4-18.9l-28.5-37.4l51.9-33.5
	l-11-22l-35.7-28.1l-70.8-7.9l1.4-10.1l61.6,7c-7.9-7-12.8-11.9-13.2-12.8l-0.8-0.8l0.4-1.4l6.6-6.6l1.4,1.4c0,0,22,22.4,48.8,41.8
	c9.2,7,17.6,8.4,26.8,8.4c1.8,0,3.6,0,5.3,0s3.6,0,5.3,0c5.7,0,12.3,0.4,19.3,3.6l15.4,10.6c9.7,7.9,22.4,15,35.7,18.9l6.6,1.8
	c5.3,1.4,10.1,1.8,14.5,1.8c0.8,0,1.8,0,2.6,0c8.8-0.4,15.4-3,19.3-7.9c2.6-3,3.6-5.7,2.6-8.4c-1.4-6.2-8.4-12.8-22-20.2l-5.7-3
	c-4-1.8-7.5-3.6-10.6-5.3l-1.8-0.8c-3-1.4-6.6-4-10.1-7l-8.4-7.5c-14.5-14.1-28.1-31.7-29.9-33.9l-0.8-0.8l0.4-1.4l7-5.3l0.8,0.8
	c1.4,1.8,14.1,18.5,27.3,31.3l27.3-33.5c-16.7-10.6-38.3-23.7-48.8-27.3c-5.3-1.8-17.6-2.6-36.1-2.6c-32.9,0-74.3,2.6-74.8,2.6h-1.4
	l-1.4-0.4l-64.7-34.4c-27.7,40.3-44,89-44,141.6c0,138.1,111.9,250,250,250s250-111.9,250-250S43.1,170.9-95,170.9z M-32.2,305.5
	l109.9,57.6l-183.4,239.3l-108.2-76.1l78.8-96c10.1,7.9,22.9,14.9,36.5,18.9l6.6,1.8c6.6,1.4,12.8,2.2,18.5,2.2c1.4,0,2.2,0,3.6,0
	c11.4-0.4,20.8-4.4,26.4-11.4c4.4-5.3,6.2-10.9,4.8-17.1c-1.8-9.2-11-18-27.3-27.3l-5.7-3c-4-2.1-7.9-3.9-11.4-5.7l-1.4-0.4
	c-1.8-0.9-4-2.2-6.6-4l-4-3.6L-32.2,305.5z M8.5,355.9l6.2,3.6c-1.7,6.6,0.5,12.8,6.2,15.8c2.2,1.4,4,1.8,6.2,1.8
	c3.6,0,7-1.7,11.4-5.3c3.6-2.6,5.3-4,6.6-4c0.4,0,0.4,0.4,0.8,0.4c0.5,0,0.9,0.5,1.4,1.4c0.5,0.9,0,2.6-0.8,4
	c-1.7,3.6-4.3,5.3-5.7,6.2l-1.8,1.4l6.2,6.2l1.6-0.2l0.8-0.4c1.3-1.4,3.5-3.1,5.7-6.2l5.3,3l4.4-7.9l-5.7-3
	c1.3-6.6-0.9-12.4-6.2-15.4c-1.7-0.9-3.5-1.4-5.3-1.4c-3.9,0-7.5,2.2-12.3,6.2c-2.6,2.7-4.3,3.6-5.7,3.6c-0.5,0-0.9,0-1.4-0.4
	c-0.9-0.4-1.4-1.4-1.4-2.2c-0.5-0.9,0-2.6,0.8-4c1.8-4,4.8-6.2,6.6-7l1.8-1.4l-6.6-6.6l-1.4-0.4l-0.4,0.4c-2.6,1.4-5.3,4-7.5,7
	l-5.7-3L8.5,355.9z M-169.8,417.6c-1.8,0-3.6,0-5.3,0c-4.4,0-9.2,0-15-1.8l8.4,17.2l23.3-15c-1.8-0.4-4-0.4-6.6-0.4
	C-166.8,417.6-168.1,417.6-169.8,417.6z M-298.2,275.2c-1,1.3-1.9,2.7-2.9,4.1C-300.1,277.9-299.1,276.6-298.2,275.2z M-206.8,501.6
	l63.4-77.4c-0.8-0.8-2.2-1.4-3-2.2l-81.4,52.3L-206.8,501.6z"/>
</svg>
