<?xml version="1.0" encoding="utf-8"?>
<!-- Generator: Adobe Illustrator 19.0.0, SVG Export Plug-In . SVG Version: 6.00 Build 0)  -->
<svg version="1.1" id="Layer_1" xmlns="http://www.w3.org/2000/svg" xmlns:xlink="http://www.w3.org/1999/xlink" x="0px" y="0px"
	 viewBox="-55 147 500 500" style="enable-background:new -55 147 500 500;" xml:space="preserve">
<path d="M148,575.6l-9.3,7.3l-22.8-30.1l-75.8-53l18.2-22.3l-33.7-44.1l61.3-39.5l-13-26l-42.1-33.2l-83.6-9.3l1.6-11.9l72.7,8.3
	c-9.3-8.3-15.1-14-15.6-15.1l-1-1l0.5-1.6l7.8-7.8l1.6,1.6c0,0,26,26.5,57.6,49.3c10.9,8.3,20.8,9.9,31.7,9.9c2.1,0,4.2,0,6.2,0
	s4.2,0,6.2,0c6.7,0,14.5,0.5,22.8,4.2l18.2,12.5c11.4,9.3,26.5,17.7,42.1,22.3l7.8,2.1c6.2,1.6,11.9,2.1,17.1,2.1c1,0,2.1,0,3.1,0
	c10.4-0.5,18.2-3.6,22.8-9.3c3.1-3.6,4.2-6.7,3.1-9.9c-1.6-7.3-9.9-15.1-26-23.9l-6.7-3.6c-4.7-2.1-8.8-4.2-12.5-6.2l-2.1-1
	c-3.6-1.6-7.8-4.7-11.9-8.3l-9.9-8.8c-17.1-16.6-33.2-37.4-35.3-40l-1-1l0.5-1.6l8.3-6.2l1,1c1.6,2.1,16.6,21.8,32.2,36.9l32.2-39.5
	c-19.7-12.5-45.2-28-57.6-32.2c-6.2-2.1-20.8-3.1-42.6-3.1c-38.9,0-87.7,3.1-88.3,3.1h-1.6l-1.6-0.5L-55,200.7l5.7-10.4L34.8,235
	c6.2-0.5,49.3-3.1,86.2-3.1c23.9,0,40,1,47.2,3.6c14,4.2,41,20.8,61.8,34.3l39.5-47.8l46.7,24.4l10.4-6.7l27.5,26.5l67,34.8
	l-13,17.1l36.9,35.8L293.4,467.6L189,603.6L148,575.6z M184.9,587l216.5-282.5l-129.8-68l-74.2,88.8l4.7,4.2
	c3.1,2.1,5.7,3.6,7.8,4.7l1.6,0.5c4.2,2.1,8.8,4.2,13.5,6.7l6.7,3.6c19.2,10.9,30.1,21.3,32.2,32.2c1.6,7.3-0.5,14-5.7,20.2
	c-6.7,8.3-17.7,13-31.2,13.5c-1.6,0-2.6,0-4.2,0c-6.7,0-14-1-21.8-2.6l-7.8-2.1c-16.1-4.7-31.2-13-43.1-22.3L57.1,497.2L184.9,587z
	 M65.5,468.1l74.8-91.4c-1-1-2.6-1.6-3.6-2.6l-96.1,61.8L65.5,468.1z M319.4,431.8l105.9-79.4l-26-24.9l-5.2,7.3
	c0.5,0.5,1.6,1,2.1,1.6c4.7,4.7,5.2,11.9,1.6,18.2l5.2,5.2l-7.3,7.3l-4.7-4.7c-3.1,2.6-6.2,3.6-8.3,4.2h-1l-1-0.5l-4.7-8.3
	L319.4,431.8z M95.1,387.1l27.5-17.7c-2.1-0.5-4.7-0.5-7.8-0.5c-2.1,0-3.6,0-5.7,0c-2.1,0-4.2,0-6.2,0c-5.2,0-10.9,0-17.7-2.1
	L95.1,387.1z M385.3,345.6l-8.3,10.9l1.6-0.5c2.1-0.5,4.7-1.6,7.8-4.7c1.6-1.6,2.1-2.6,2.1-3.6c0-1-0.5-1.6-0.5-1.6
	c-0.5-0.5-1-0.5-1.6-0.5C385.8,345.6,385.3,345.6,385.3,345.6z M363,333.1l-7.3-7.3l2.1-1.6c1.6-1,4.7-3.1,6.7-7.3
	c1-1.6,1.6-3.6,1-4.7c-0.5-1-1-1.6-1.6-1.6c-0.5,0-0.5-0.5-1-0.5c-1.6,0-3.6,1.6-7.8,4.7c-5.2,4.2-9.3,6.2-13.5,6.2
	c-2.6,0-4.7-0.5-7.3-2.1c-6.7-3.6-9.3-10.9-7.3-18.7l-7.3-4.2l5.2-9.3l6.7,3.6c2.6-3.6,5.7-6.7,8.8-8.3l0.5-0.5l1.6,0.5l7.8,7.8
	l-2.1,1.6c-2.1,1-5.7,3.6-7.8,8.3c-1,1.6-1.6,3.6-1,4.7c0,1,0.5,2.1,1.6,2.6c0.5,0.5,1,0.5,1.6,0.5c1.6,0,3.6-1,6.7-4.2
	c5.7-4.7,9.9-7.3,14.5-7.3c2.1,0,4.2,0.5,6.2,1.6c6.2,3.6,8.8,10.4,7.3,18.2l6.7,3.6l-5.2,9.3l-6.2-3.6c-2.6,3.6-5.2,5.7-6.7,7.3
	l-1,0.5L363,333.1z"/>
</svg>
