<?xml version="1.0" encoding="utf-8"?>
<svg version="1.1" id="Layer_1" xmlns="http://www.w3.org/2000/svg" xmlns:xlink="http://www.w3.org/1999/xlink" x="0px" y="0px"
	 viewBox="0 0 500 500" style="enable-background:new 0 0 500 500;" xml:space="preserve">
<path d="M370,235.5c-0.2,0-0.3,0-0.5,0c0,0,0,0,0,0s0,0,0,0c-0.3,0-0.7,0-1,0c4.2-2.6,6.8-4.7,6.8-4.7l-4.2-3.7c0,0,12.6-3.1,10-9.4
	c-3.1-6.3-33.6-44.6-33.6-44.6s5.2-11.5-5.8-19.9l-5.2,11.5c0,0-13.6-9.4-19.4-7.9c-5.2,1.6-13.6,2.6-16.3,6.8l-2.6,2.6
	c0,0-0.5,4.2,3.7,10.5c0,0,42.5,13.1,44.6,22.6c0,0,3.1,6.3-10,7.3l-2.6,3.1l-6.8,0.5l-12.1-27.8c0,0-11.5,3.1-17.8,7.9l1,4.7
	c0,0-49.3-33.6-95.5,16.3c0,0-34.1,10-58.3-20.5c0,0-0.5-10-58.3-7.9l4.2,4.2c0,0-4.2,0.5-5.8,3.1c-1.6,2.6,1,5.2,14.2,5.2
	c0,0,29.9,34.1,53,32l32.5,15.7l14.7,24.7c0,0,0,2.1,0,5.2c-3.1,0.5-7.3,1.6-11,2.1c-10-23.1-32-39.9-57.7-39.9c-0.1,0-0.2,0-0.3,0
	c-0.1,0-0.2,0-0.3,0c-32.5,0-58.8,26.2-58.8,58.8c0,32.5,26.2,58.8,58.8,58.8c0.1,0,0.2,0,0.3,0c0.1,0,0.2,0,0.3,0
	c23.6,0,44.1-14.2,53-34.1l14.2,10.5c0,0,102.4,0.5,108.1-2.6c0,0-12.6-34.6,3.7-49.3c1.4-1.4,3.3-2.9,5.6-4.7
	c-2.6,6.7-4.1,13.9-4.1,21.5c0,32.5,26.2,58.8,58.8,58.8c0.1,0,0.2,0,0.3,0c0.1,0,0.2,0,0.3,0c32.5,0,58.8-26.2,58.8-58.8
	C428.8,261.7,402.6,235.5,370,235.5z M127.5,303.2l39.3-2c-3.2,17.6-18.5,30.8-37.2,30.8c-21,0-37.8-16.8-37.8-37.8
	c0-21,17.3-37.8,37.8-37.8c15.9,0,29.3,9.6,35,23.3c-20.3,4.4-39.7,8.2-39.7,8.2L127.5,303.2z M186.3,310c0.9-2.6,1.4-4.9,1.5-7.5
	c0.1-0.5,0.1-1,0.2-1.5l12.5-0.5c1,4.2,2.6,7.3,4.7,8.9L186.3,310z M407.3,294.3c0,21-16.8,37.8-37.8,37.8s-37.8-16.8-37.8-37.8
	c0-21,16.8-37.8,37.8-37.8S407.3,273.3,407.3,294.3z"/>
</svg>
